<svg id="Layer_1" enable-background="new 0 0 512 512" height="512" viewBox="0 0 512 512" width="512" xmlns="http://www.w3.org/2000/svg"><path d="m511.999 47.133c0-8.284-6.716-15-15-15h-466.999v-17.133c-.793-19.902-29.215-19.887-30 0v482c.793 19.902 29.215 19.887 30 0v-81.4h467c8.284 0 15-6.716 15-15zm-30 15v16.223l-142.102 98.377h-36.765v-16.223l142.102-98.377zm0 52.711v61.89h-89.397zm-178.867-52.711h89.397l-89.397 61.89zm-94.264 0v61.89l-89.398-61.89zm-178.868 0h36.765l142.102 98.377v16.223h-36.765l-142.102-98.377zm89.397 114.6h-89.396v-61.89zm-89.397 208.867v-16.223l142.101-98.377h36.765v16.223l-142.102 98.377zm0-52.71v-61.89h89.396zm178.867 52.71h-89.397l89.397-61.89zm94.265 0v-61.89l89.398 61.89zm178.868 0h-36.765l-142.102-98.377v-16.223h36.765l142.102 98.377zm-89.397-114.6h89.396v61.89zm89.397-30h-193.867c-8.284 0-15 6.716-15 15v129.6h-34.268v-129.6c0-8.284-6.716-15-15-15h-193.866v-34.267h193.867c8.284 0 15-6.716 15-15v-129.6h34.268v129.6c0 8.284 6.716 15 15 15h193.866z"/></svg>