<svg id="Layer_1" enable-background="new 0 0 512 512" height="512" viewBox="0 0 512 512" width="512" xmlns="http://www.w3.org/2000/svg"><path d="m455.508 97.983-192.8-96.4c-4.222-2.111-9.193-2.112-13.416 0l-192.8 96.4c-5.082 2.541-8.292 7.735-8.292 13.417v73.642c0 196.312 141.783 295.723 201.092 325.375 4.223 2.111 9.193 2.111 13.416 0 58.899-29.448 201.092-128.769 201.092-325.375v-73.642c0-5.682-3.21-10.876-8.292-13.417zm-377.308 87.059v-64.372l130.667-65.333v137.463h-130.576c-.061-2.594-.091-5.183-.091-7.758zm130.667 264.894c-53.996-41.323-93.901-97.915-114.708-162.869h114.708zm94.267.002v-162.871h114.708c-20.807 64.959-60.713 121.553-114.708 162.871zm122.812-192.871h-137.812c-8.284 0-15 6.716-15 15v198.356c-5.612 3.403-11.34 6.649-17.134 9.712-5.794-3.062-11.522-6.31-17.133-9.712v-198.356c0-8.284-6.716-15-15-15h-137.814c-2.494-11.292-4.404-22.747-5.715-34.267h143.529c8.284 0 15-6.716 15-15v-167.463l17.133-8.566 17.134 8.567v167.462c0 8.284 6.716 15 15 15h143.528c-1.311 11.519-3.222 22.973-5.716 34.267zm7.854-72.025c0 2.575-.03 5.164-.091 7.758h-130.575v-137.463l130.666 65.333z"/></svg>