<?xml version="1.0" encoding="UTF-8"?>
<svg id="Glyph" xmlns="http://www.w3.org/2000/svg" version="1.1" viewBox="0 0 48 48">
  <path d="M28.49664,35.37866c-.55347.55896-1.05701,1.05261-1.48157,1.45721,1.69464-.18909,3.01361-.51483,3.97028-.83588-.65625-.22021-1.48938-.44147-2.48871-.62134Z" style="fill: #000; stroke-width: 0px;"/>
  <path d="M20.98492,36.83588c-.42456-.4046-.9281-.89825-1.48157-1.45721-.99933.17987-1.83246.40112-2.48871.62134.95667.32104,2.27563.64679,3.97028.83588Z" style="fill: #000; stroke-width: 0px;"/>
  <path d="M33.03003,30.32996c-.97504,1.21375-1.96747,2.33728-2.90253,3.34528,2.11676.51495,3.36432,1.18286,3.83636,1.47321.29492.18164.47559.50391.47559.85156s-.18066.66992-.47559.85156c-.81934.50391-3.95898,2.14844-9.96387,2.14844s-9.14453-1.64453-9.96387-2.14844c-.29492-.18164-.47559-.50391-.47559-.85156s.18066-.66992.47559-.85156c.47205-.29034,1.7196-.95825,3.83636-1.47321-.93506-1.008-1.92749-2.13153-2.90253-3.34528-3.66998,1.26001-5.96997,3.29004-5.96997,5.67004,0,3.98999,6.45001,7,15,7s15-3.01001,15-7c0-2.38-2.29999-4.41003-5.96997-5.67004Z" style="fill: #000; stroke-width: 0px;"/>
  <path d="M29.27374,23.78571h-10.54749c1.40973,1.24066,3.25269,2,5.27374,2s3.86401-.75934,5.27374-2Z" style="fill: #000; stroke-width: 0px;"/>
  <path d="M26.38184,14.78571h-3.38184v2h3.38184l-.27637-.55273c-.14062-.28125-.14062-.61328,0-.89453l.27637-.55273Z" style="fill: #000; stroke-width: 0px;"/>
  <path d="M23.38,36.32996c.16998.16003.40002.24005.62.24005s.45001-.08002.62-.24005c.51001-.45996,12.38-11.32996,12.38-18.32996,0-7.17004-5.83002-13-13-13s-13,5.82996-13,13c0,7,11.87,17.87,12.38,18.32996ZM14,17.78998c0-5.52002,4.48999-10,10-10s10,4.47998,10,10c0,5.51001-4.48999,10-10,10s-10-4.48999-10-10Z" style="fill: #000; stroke-width: 0px;"/>
  <path d="M21,13.78998c0-.56.45001-1,1-1h6c.34998,0,.66998.17999.84998.47003.18005.29999.20001.65997.04004.96997l-.77002,1.56.77002,1.54999c.15997.31.14001.67999-.04004.97003-.17999.29999-.5.47998-.84998.47998h-5v3h7.91998c.67999-1.17999,1.08002-2.54999,1.08002-4,0-4.41998-3.59003-8-8-8s-8,3.58002-8,8c0,1.45001.40002,2.82001,1.08002,4h3.91998v-8Z" style="fill: #000; stroke-width: 0px;"/>
</svg>