<?xml version="1.0" encoding="UTF-8"?>
<svg id="Glyph" xmlns="http://www.w3.org/2000/svg" version="1.1" viewBox="0 0 64 64">
  <path d="M32,7c-3.59003,0-7.09003.96997-10.15002,2.77997l.10004.10004c.41998.41998.70996.95996.82001,1.54999l.5,2.59998,1.19165,1.19165c2.17877-1.39935,4.76208-2.22162,7.53833-2.22162,7.71973,0,14,6.28027,14,14s-6.28027,14-14,14-14-6.28027-14-14c0-2.77399.82104-5.35522,2.21832-7.5329l-1.30835-1.30713-2.35999-.37c-.63-.08997-1.21997-.39001-1.66998-.83997l-.09998-.10004c-1.81006,3.04999-2.78003,6.56-2.78003,10.15002,0,11.02997,8.96997,20,20,20s20-8.97003,20-20S43.03003,7,32,7Z" style="fill: #000; stroke-width: 0px;"/>
  <path d="M21.67236,20.91986c-1.05548,1.78571-1.67236,3.85986-1.67236,6.08014,0,6.61719,5.38281,12,12,12s12-5.38281,12-12c0-6.6167-5.38281-12-12-12-2.22229,0-4.2981.61804-6.08478,1.67517l2.96075,2.96082c.96033-.409,2.01611-.63599,3.12402-.63599,4.41113,0,8,3.58887,8,8s-3.58887,8-8,8-8-3.58887-8-8c0-1.10663.22638-2.16132.63446-3.12079l-2.9621-2.95935Z" style="fill: #000; stroke-width: 0px;"/>
  <path d="M31.99978,29.96354c-.77716.00039-1.55545-.27922-2.11978-.84355l-3.67041-3.66705c-.13232.49457-.20959,1.01135-.20959,1.54706,0,3.30859,2.69141,6,6,6s6-2.69141,6-6-2.69141-6-6-6c-.53668,0-1.05444.07751-1.54974.21027l3.66973,3.66973c1.13307,1.13307,1.12741,3.11252.00007,4.23993-.56039.56042-1.33977.84322-2.12028.84361Z" style="fill: #000; stroke-width: 0px;"/>
  <path d="M41.95001,46.60999c-1.76001.90002-3.66003,1.57001-5.66003,1.96997l.40936,1.42004h-9.39874l.40942-1.42004c-2-.39996-3.90002-1.06995-5.66003-1.96997l-1.74999,6.04996c-.44975,1.55483.23558,3.28069,1.81004,3.84007,1.583.55861,3.27309-.29496,3.84999-1.85005l.76398-2.64996h10.55188s.78357,2.71806.78413,2.72001c.44418,1.54068,2.38679,2.28926,3.82992,1.78002,1.49375-.5271,2.40009-2.26728,1.83004-3.78006l-1.76996-6.10999Z" style="fill: #000; stroke-width: 0px;"/>
  <path d="M16.84863,15.81641l3.0144.46069s11.42869,11.42869,11.42993,11.42993c.37489.37489,1.02386.3902,1.41406,0,.39062-.39062.39062-1.02344,0-1.41406l-11.28625-11.28625-.61023-3.19421c-.03809-.19678-.13379-.37793-.27539-.51953l-4.41406-4.41406c-.26855-.26953-.66797-.36182-1.02832-.23975s-.62012.43896-.66992.81641l-.20996,1.59863-1.83105.38086c-.35938.07471-.64941.34082-.75391.69287-.10547.35205-.00879.7334.25098.99316l4.41406,4.41406c.15039.15088.3457.24951.55566.28125Z" style="fill: #000; stroke-width: 0px;"/>
</svg>