<?xml version="1.0" encoding="UTF-8"?>
<svg xmlns="http://www.w3.org/2000/svg" version="1.1" viewBox="0 0 48 48">
  <!-- Generator: Adobe Illustrator 28.7.1, SVG Export Plug-In . SVG Version: 1.2.0 Build 142)  -->
  <g>
    <g id="Glyph">
      <g>
        <path d="M41,19H7c-1.10455,0-2,.89539-2,2v10c0,1.10455.89545,2,2,2h34c1.10455,0,2-.89545,2-2v-10c0-1.10461-.89545-2-2-2ZM35,30c0,.55273-.44727,1-1,1H10c-.55273,0-1-.44727-1-1v-8c0-.55273.44727-1,1-1h24c.55273,0,1,.44727,1,1v8ZM38,31c-.55231,0-1-.44775-1-1,0-.55231.44769-1,1-1s1,.44769,1,1c0,.55225-.44769,1-1,1ZM38,27c-.55231,0-1-.44775-1-1,0-.55231.44769-1,1-1s1,.44769,1,1c0,.55225-.44769,1-1,1ZM38,23c-.55231,0-1-.44775-1-1,0-.55231.44769-1,1-1s1,.44769,1,1c0,.55225-.44769,1-1,1Z"/>
        <rect x="13" y="15" width="22" height="2"/>
        <rect x="11" y="23" width="22" height="6"/>
        <path d="M31,37c0,1.10455.89545,2,2,2h4c1.10455,0,2-.89545,2-2v-2h-8v2Z"/>
        <path d="M39,9H9c-2.20917,0-4,1.79083-4,4h38c0-2.20917-1.79083-4-4-4Z"/>
        <path d="M9,37c0,1.10455.89545,2,2,2h4c1.10455,0,2-.89545,2-2v-2h-8v2Z"/>
      </g>
    </g>
  </g>
</svg>