<?xml version="1.0" encoding="UTF-8"?>
<svg xmlns="http://www.w3.org/2000/svg" version="1.1" viewBox="0 0 48 48">
  <!-- Generator: Adobe Illustrator 28.7.1, SVG Export Plug-In . SVG Version: 1.2.0 Build 142)  -->
  <g>
    <g id="Glyph">
      <g>
        <rect x="15" y="35" width="8" height="2"/>
        <path d="M9,38c0,2.75684,2.24316,5,5,5h20c2.75684,0,5-2.24316,5-5V11H9v27ZM27,14c0-.55225.44727-1,1-1h6c.55273,0,1,.44775,1,1s-.44727,1-1,1h-5v2h3c.55273,0,1,.44775,1,1s-.44727,1-1,1h-3v2h5c.55273,0,1,.44775,1,1s-.44727,1-1,1h-5v2h3c.55273,0,1,.44775,1,1s-.44727,1-1,1h-3v2h5c.55273,0,1,.44775,1,1s-.44727,1-1,1h-5v2h3c.55273,0,1,.44775,1,1s-.44727,1-1,1h-3v2h5c.55273,0,1,.44775,1,1s-.44727,1-1,1h-6c-.55273,0-1-.44775-1-1V14ZM13,34c0-.55225.44727-1,1-1h10c.55273,0,1,.44775,1,1v4c0,.55225-.44727,1-1,1h-10c-.55273,0-1-.44775-1-1v-4Z"/>
        <path d="M39,5H9c-1.10455,0-2,.89539-2,2,0,1.10455.89545,2,2,2h30c1.10455,0,2-.89545,2-2,0-1.10461-.89545-2-2-2Z"/>
      </g>
    </g>
  </g>
</svg>