<?xml version="1.0" encoding="UTF-8"?>
<svg xmlns="http://www.w3.org/2000/svg" version="1.1" viewBox="0 0 48 48">
  <!-- Generator: Adobe Illustrator 28.7.1, SVG Export Plug-In . SVG Version: 1.2.0 Build 142)  -->
  <g>
    <g id="Glyph">
      <g>
        <path d="M15.68848,36.9834h.00049c.94629.95898,2.20996,1.4873,3.55762,1.4873h.00049c1.34766,0,2.61133-.52832,3.55811-1.4873l17.49365-17.7207c1.71289-1.73535,1.71289-4.55859-.00049-6.29297-.84814-.85938-1.97998-1.33301-3.1875-1.33301-1.20703,0-2.33887.47363-3.18701,1.33301l-14.67676,14.86621-5.1709-5.23633c-.84814-.85938-1.97998-1.33301-3.18701-1.33301-1.20752,0-2.33936.47363-3.1875,1.33301-1.71338,1.73438-1.71338,4.55762-.00049,6.29199l7.9873,8.0918Z"/>
        <path d="M42,5H6c-.55225,0-1,.44727-1,1v14.05957c0,.55273.44775,1,1,1s1-.44727,1-1V7h34v3.42969c0,.55273.44775,1,1,1s1-.44727,1-1v-4.42969c0-.55273-.44775-1-1-1Z"/>
        <path d="M42,20.80957c-.55225,0-1,.44727-1,1v19.19043H7v-9.55957c0-.55273-.44775-1-1-1s-1,.44727-1,1v10.55957c0,.55273.44775,1,1,1h36c.55225,0,1-.44727,1-1v-20.19043c0-.55273-.44775-1-1-1Z"/>
      </g>
    </g>
  </g>
</svg>