<?xml version="1.0" encoding="UTF-8"?>
<svg xmlns="http://www.w3.org/2000/svg" version="1.1" viewBox="0 0 64 64">
  <!-- Generator: Adobe Illustrator 28.7.1, SVG Export Plug-In . SVG Version: 1.2.0 Build 142)  -->
  <g>
    <g id="Glyph">
      <g>
        <path d="M16,41c-2.20544,0-4,1.79449-4,4s1.79456,4,4,4,4-1.79456,4-4-1.79456-4-4-4ZM16,46c-.55151,0-1-.44849-1-1s.44849-1,1-1,1,.44849,1,1-.44849,1-1,1Z"/>
        <path d="M42,41c-2.20544,0-4,1.79449-4,4s1.79456,4,4,4,4-1.79456,4-4-1.79456-4-4-4ZM42,46c-.55151,0-1-.44849-1-1s.44849-1,1-1,1,.44849,1,1-.44849,1-1,1Z"/>
        <path d="M7,44c0,.54999.45001,1,1,1h2c0-1.5379.58563-2.93744,1.53943-4h-4.53943v3Z"/>
        <path d="M53,35c0,.55127.44873,1,1,1h3v-2h-3c-.55127,0-1,.44873-1,1Z"/>
        <path d="M22,45h14c0-1.22003.35999-2.35999,1-3.31v-.69h-16.53943c.9538,1.06256,1.53943,2.4621,1.53943,4Z"/>
        <path d="M34,15H10c-1.65002,0-3,1.34998-3,3v21h30v-21c0-1.65686-1.34314-3-3-3ZM13,35c0,.55225-.44775,1-1,1s-1-.44775-1-1v-16c0-.55225.44775-1,1-1s1,.44775,1,1v16ZM18,35c0,.55225-.44775,1-1,1s-1-.44775-1-1v-16c0-.55225.44775-1,1-1s1,.44775,1,1v16ZM23,35c0,.55225-.44775,1-1,1s-1-.44775-1-1v-16c0-.55225.44775-1,1-1s1,.44775,1,1v16ZM28,35c0,.55225-.44775,1-1,1s-1-.44775-1-1v-16c0-.55225.44775-1,1-1s1,.44775,1,1v16ZM33,35c0,.55225-.44775,1-1,1s-1-.44775-1-1v-16c0-.55225.44775-1,1-1s1,.44775,1,1v16Z"/>
        <path d="M56.84998,27.46997l-5-8c-.17999-.28998-.50995-.46997-.84998-.46997h-12v20.81c.88-.52002,1.90002-.81,3-.81,3.31,0,6,2.69,6,6h6c1.65002,0,3-1.35004,3-3v-4h-3c-1.6543,0-3-1.3457-3-3s1.3457-3,3-3h3v-4c0-.19-.04999-.37-.15002-.53003ZM44,35h-2c-.55225,0-1-.44775-1-1s.44775-1,1-1h2c.55225,0,1,.44775,1,1s-.44775,1-1,1ZM52.87012,29.49268c-.17725.31348-.50977.50732-.87012.50732h-10c-.55225,0-1-.44775-1-1v-5c0-.55225.44775-1,1-1h7c.35107,0,.67676.18408.85742.48535l3,5c.18555.30908.19043.69385.0127,1.00732Z"/>
        <polygon points="43 25 43 28 50.23389 28 48.43359 25 43 25"/>
      </g>
    </g>
  </g>
</svg>