<?xml version="1.0" encoding="UTF-8"?>
<svg xmlns="http://www.w3.org/2000/svg" version="1.1" viewBox="0 0 48 48">
  <!-- Generator: Adobe Illustrator 28.7.1, SVG Export Plug-In . SVG Version: 1.2.0 Build 142)  -->
  <g>
    <g id="Glyph">
      <g>
        <path d="M21.04297,26.42139s-3.17188-3.17139-3.17189-3.1714c-.38703-.38701-1.02916-.38538-1.41356.00001-.39014.38965-.39014,1.02393,0,1.41406l4.58545,4.58594c.37793.37793,1.03662.37793,1.41406,0l11.08594-11.08594c.38965-.39014.38965-1.02441,0-1.41406-.37793-.37793-1.03662-.37793-1.41357,0l-9.67236,9.67139c-.39062.39062-1.02344.39062-1.41406,0Z"/>
        <path d="M24,5C13.52344,5,5,13.52344,5,24s8.52344,19,19,19,19-8.52344,19-19S34.47656,5,24,5ZM34.95752,15.33594c1.16895,1.16895,1.16895,3.07227,0,4.24219l-11.08643,11.08594c-.56641.56689-1.31982.87891-2.12109.87891s-1.55469-.31201-2.12158-.87891l-4.58545-4.58594c-1.16943-1.16992-1.16943-3.07324,0-4.24219,1.13281-1.13379,3.10889-1.13379,4.24268,0l2.46436,2.46436,8.96484-8.96436c1.13281-1.13379,3.10889-1.13379,4.24268,0ZM24,38c-7.71973,0-14-6.28027-14-14s6.28027-14,14-14c2.12988,0,4.26367.49561,6.1709,1.43262.49561.24365.7002.84277.45654,1.33838-.24316.49561-.84229.70068-1.33838.45654-1.63428-.80322-3.46338-1.22754-5.28906-1.22754-6.6167,0-12,5.3833-12,12s5.3833,12,12,12,12-5.3833,12-12c0-.60645-.05029-1.25-.14941-1.91211-.08154-.54639.29541-1.05518.84131-1.13721.54346-.08057,1.05518.29443,1.13721.84131.11328.76025.1709,1.50293.1709,2.20801,0,7.71973-6.28027,14-14,14Z"/>
      </g>
    </g>
  </g>
</svg>