<?xml version="1.0" encoding="UTF-8"?>
<svg id="Glyph" xmlns="http://www.w3.org/2000/svg" version="1.1" viewBox="0 0 48 48">
  <path d="M31,26c-3.30859,0-6,2.69141-6,6s2.69141,6,6,6,6-2.69141,6-6-2.69141-6-6-6ZM34.20703,31.20703l-3,3c-.19531.19531-.45117.29297-.70703.29297s-.51172-.09766-.70703-.29297l-2-2c-.39062-.39062-.39062-1.02344,0-1.41406s1.02344-.39062,1.41406,0l1.29297,1.29297,2.29297-2.29297c.39062-.39062,1.02344-.39062,1.41406,0s.39062,1.02344,0,1.41406Z" fill="#000" stroke-width="0"/>
  <path d="M40,16h-.59998v2c0,1.64996-1.35004,3-3,3h-10.80005c-1.64996,0-3-1.35004-3-3v-2h-.59998c-1.65997,0-3,1.33997-3,3v21c0,.04999,0,.10999.01001.15997.08002,1.59003,1.38,2.84003,2.98999,2.84003h18c1.65997,0,3-1.34003,3-3v-21c0-1.66003-1.34003-3-3-3ZM31,40c-4.41113,0-8-3.58887-8-8s3.58887-8,8-8,8,3.58887,8,8-3.58887,8-8,8Z" fill="#000" stroke-width="0"/>
  <path d="M27.08044,14.20001h-1.48047c-.55225,0-1,.44769-1,1v2.79999c0,.55225.44775,1,1,1h10.80005c.55225,0,1-.44775,1-1v-2.79999c0-.55231-.44775-1-1-1h-1.48047c-.37189-1.82349-1.98755-3.20001-3.91956-3.20001s-3.54767,1.37653-3.91956,3.20001Z" fill="#000" stroke-width="0"/>
  <path d="M10,18h7.10089c.46375-2.28125,2.48163-4,4.89911-4h.85999c.46002-1.06,1.52002-1.79999,2.73999-1.79999h.09003c1.02002-1.92004,3.04999-3.20001,5.31-3.20001v-1c0-1.65002-1.34998-3-3-3h-13v9c0,.55225-.44775,1-1,1H5v23c0,1.64996,1.34998,3,3,3h9.10999c-.04999-.22003-.07996-.44-.08997-.67004-.02002-.10999-.02002-.22998-.02002-.32996v-4h-7c-.55225,0-1-.44775-1-1s.44775-1,1-1h7v-2h-7c-.55225,0-1-.44775-1-1s.44775-1,1-1h7v-2h-7c-.55225,0-1-.44775-1-1s.44775-1,1-1h7v-2h-7c-.55225,0-1-.44775-1-1s.44775-1,1-1h7v-2h-7c-.55225,0-1-.44775-1-1s.44775-1,1-1ZM19,8h6c.55225,0,1,.44775,1,1s-.44775,1-1,1h-6c-.55225,0-1-.44775-1-1s.44775-1,1-1Z" fill="#000" stroke-width="0"/>
  <polygon points="13 5.57996 5.57996 13 13 13 13 5.57996" fill="#000" stroke-width="0"/>
</svg>