<?xml version="1.0" encoding="UTF-8"?>
<svg xmlns="http://www.w3.org/2000/svg" version="1.1" viewBox="0 0 48 48">
  <!-- Generator: Adobe Illustrator 28.7.1, SVG Export Plug-In . SVG Version: 1.2.0 Build 142)  -->
  <g>
    <g id="Glyph">
      <g>
        <path d="M8.29301,9.70708c.3874.38735,1.02667.3873,1.41402-.00004.39062-.39062.39062-1.02344,0-1.41406l-3-3c-.39062-.39062-1.02344-.39062-1.41406,0s-.39062,1.02344,0,1.41406c0,0,3,3,3.00004,3.00004Z"/>
        <path d="M42.70703,5.29297c-.39062-.39062-1.02344-.39062-1.41406,0l-3,3c-.39059.39059-.39062,1.02328-.00009,1.41391.36155.36164,1.03014.38417,1.41416.00015l3-3c.39062-.39062.39062-1.02344,0-1.41406Z"/>
        <path d="M42.70703,41.29297l-3-3c-.39062-.39062-1.02344-.39062-1.41406,0s-.39062,1.02344,0,1.41406l3,3c.37018.37018,1.01847.39559,1.41406,0,.39062-.39062.39062-1.02344,0-1.41406Z"/>
        <path d="M8.29297,38.29297l-3,3c-.39062.39062-.39062,1.02344.00002,1.41408.3874.38737,1.02741.38661,1.41404-.00002l3-3c.39062-.39062.39062-1.02344,0-1.41406s-1.02344-.39062-1.41406,0Z"/>
        <path d="M24.45117,19.11523c-.08691-.26123-.0625-.54688.06836-.78955l3.40625-6.32568h-6.05078l-3.5918,8.89307,4.73779,2.19971c.42383.19678.65527.66113.55664,1.11768l-1.78857,8.30469,7.69385-10.7168-4.50391-2.09131c-.25-.11621-.44092-.33008-.52783-.5918Z"/>
        <path d="M24,5C13.52344,5,5,13.52344,5,24s8.52344,19,19,19,19-8.52344,19-19S34.47656,5,24,5ZM14.80762,33.19238c.39062.39062.39062,1.02344,0,1.41406-.38625.38625-1.0279.38616-1.41406,0-2.8291-2.82861-4.38721-6.5957-4.38721-10.60645s1.55811-7.77783,4.38721-10.60645c.39062-.39062,1.02344-.39062,1.41406,0s.39062,1.02344,0,1.41406c-2.45117,2.45117-3.80127,5.71582-3.80127,9.19238s1.3501,6.74121,3.80127,9.19238ZM31.8125,21.98291s-11.17634,15.56687-11.20016,15.60004c-.25969.36171-.79138.52045-1.21781.33111-.43311-.19189-.67188-.66162-.57227-1.12451l2.63184-12.21924-4.875-2.26318c-.4834-.22461-.70557-.78809-.50635-1.28174l4.2002-10.3999c.15283-.37793.51953-.62549.92725-.62549h8.39989c.7444,0,1.23433.81693.88038,1.47412l-3.69678,6.86572,4.63721,2.15283c.27051.12549.4707.36523.54639.65332s.01904.59521-.15479.83691ZM34.60645,34.60645c-.36814.36798-1.02435.38971-1.41406,0-.39062-.39062-.39062-1.02344,0-1.41406,2.45117-2.45117,3.80127-5.71582,3.80127-9.19238s-1.3501-6.74121-3.80127-9.19238c-.39062-.39062-.39062-1.02344,0-1.41406s1.02344-.39062,1.41406,0c2.8291,2.82861,4.38721,6.5957,4.38721,10.60645s-1.55807,7.77775-4.38721,10.60645Z"/>
      </g>
    </g>
  </g>
</svg>