<?xml version="1.0" encoding="UTF-8"?>
<svg xmlns="http://www.w3.org/2000/svg" version="1.1" viewBox="0 0 64 64">
  <!-- Generator: Adobe Illustrator 28.7.1, SVG Export Plug-In . SVG Version: 1.2.0 Build 142)  -->
  <g>
    <g id="Glyph">
      <g>
        <path d="M35.5,38c-.55273,0-1,.44775-1,1v3h20v-3c0-.55225-.44727-1-1-1h-1.47937l-5.92749-8.46783c.84229-.5318,1.40686-1.46448,1.40686-2.53217,0-.80176-.31251-1.55518-.87891-2.12109-.42822-.42822-.9201-1.07935-1.07074-1.88403,1.62653-.02783,2.94965-1.36212,2.94965-2.99487v-1h-8v1c0,1.64996,1.34998,3,3,3h.05341c.12543,1.18011.67255,2.31195,1.65363,3.29346.18945.18848.29297.43945.29297.70654,0,.55127-.44824,1-1,1s-1-.44873-1-1c0-.55225-.44727-1-1-1s-1,.44775-1,1c0,1.06763.5647,2.00037,1.40692,2.53217l-5.92755,8.46783h-1.47937ZM44.5,30.74365l5.07941,7.25635h-10.15881l5.07941-7.25635Z"/>
        <path d="M33.5,48h22c.54999,0,1-.45001,1-1v-3h-24v3c0,.54999.45001,1,1,1Z"/>
        <rect x="12.5" y="9" width="2" height="8"/>
        <path d="M57,13c0-2.21002-1.78998-4-4-4h-20.5v8h20.5c2.21002,0,4-1.79004,4-4Z"/>
        <path d="M56.5,55h-24v-4H14.5v4h-6c-.54999,0-1,.45001-1,1s.45001,1,1,1h48c.54999,0,1-.45001,1-1s-.45001-1-1-1Z"/>
        <polygon points="18.81 21 17.06 49 30.44 49 28.69 21 18.81 21"/>
        <path d="M10.5,19V7h-3c-.55273,0-1,.44775-1,1v10c0,.55225.44727,1,1,1h3Z"/>
        <rect x="16.5" y="7" width="14" height="12" rx="1" ry="1"/>
      </g>
    </g>
  </g>
</svg>