<?xml version="1.0" encoding="UTF-8"?>
<svg xmlns="http://www.w3.org/2000/svg" version="1.1" viewBox="0 0 48 48">
  <!-- Generator: Adobe Illustrator 28.7.1, SVG Export Plug-In . SVG Version: 1.2.0 Build 142)  -->
  <g>
    <g id="Glyph">
      <g>
        <path d="M5,16v2c0,1.10455.89545,2,2,2h3v-6h-3c-1.10455,0-2,.89539-2,2Z"/>
        <path d="M41,14h-13v6h6v3c0,.55225.44727,1,1,1h1v2.12646c-1.72363.44531-3,2.01318-3,3.87354,0,2.20557,1.79395,4,4,4s4-1.79443,4-4c0-.55225-.44727-1-1-1s-1,.44775-1,1c0,1.10303-.89746,2-2,2s-2-.89697-2-2,.89746-2,2-2c.55273,0,1-.44775,1-1v-3h1c.55273,0,1-.44775,1-1v-3h1c1.10455,0,2-.89545,2-2v-2c0-1.10461-.89545-2-2-2Z"/>
        <path d="M24,12h-10c-1.10455,0-2,.89539-2,2v7c0,1.10455.89545,2,2,2h1v18h-2c-.55273,0-1,.44775-1,1s.44727,1,1,1h12c.55273,0,1-.44775,1-1s-.44727-1-1-1h-2v-18h1c1.10455,0,2-.89545,2-2v-7c0-1.10461-.89545-2-2-2ZM21,23v2.50049l-3.33398-2.50049h3.33398ZM17,24.99976l3.33301,2.50024-3.33301,2.50024v-5.00049ZM21,29.49976v5.00049l-3.33301-2.50024,3.33301-2.50024ZM17,33.99976l3.33301,2.50024-3.33301,2.50024v-5.00049ZM17.66602,41l3.33398-2.50049v2.50049h-3.33398Z"/>
        <path d="M21,7c0-1.10461-.89545-2-2-2s-2,.89539-2,2v3h4v-3Z"/>
      </g>
    </g>
  </g>
</svg>