<?xml version="1.0" encoding="UTF-8"?>
<svg xmlns="http://www.w3.org/2000/svg" version="1.1" viewBox="0 0 48 48">
  <!-- Generator: Adobe Illustrator 28.7.1, SVG Export Plug-In . SVG Version: 1.2.0 Build 142)  -->
  <g>
    <g id="Glyph">
      <g>
        <path d="M26.99219,13.37598c-.0625-.50049-.48828-.87598-.99219-.87598h-4c-.50391,0-.92969.37549-.99219.87598l-.8905,6.12402h7.76538l-.8905-6.12402Z"/>
        <rect x="26" y="34.5" width="2" height="6"/>
        <rect x="30" y="34.5" width="2" height="6"/>
        <rect x="10" y="34.5" width="2" height="6"/>
        <path d="M5,31.5v8c0,.55225.44727,1,1,1h2v-7c0-.55225.44727-1,1-1h4c.55273,0,1,.44775,1,1v7h3v-12h-9c-1.6543,0-3,1.3457-3,3Z"/>
        <path d="M19,40.5h5v-7c0-.55225.44727-1,1-1h8c.55273,0,1,.44775,1,1v7h6c.55273,0,1-.44775,1-1v-13h-22v14ZM36,28.5c.55231,0,1,.44769,1,1,0,.55225-.44769,1-1,1s-1-.44775-1-1c0-.55231.44769-1,1-1ZM32,28.5c.55231,0,1,.44769,1,1,0,.55225-.44769,1-1,1s-1-.44775-1-1c0-.55231.44769-1,1-1ZM28,28.5c.55231,0,1,.44769,1,1,0,.55225-.44769,1-1,1s-1-.44775-1-1c0-.55231.44769-1,1-1ZM24,28.5c.55231,0,1,.44769,1,1,0,.55225-.44769,1-1,1s-1-.44775-1-1c0-.55231.44769-1,1-1Z"/>
        <path d="M41.5,21.5h-25c-.82843,0-1.5.67157-1.5,1.5s.67157,1.5,1.5,1.5h25c.82843,0,1.5-.67157,1.5-1.5s-.67157-1.5-1.5-1.5Z"/>
        <path d="M36.99707,8.42334c-.04004-.521-.47461-.92334-.99707-.92334h-4c-.52246,0-.95703.40234-.99707.92334l-.92896,11.07666h7.85205l-.92896-11.07666Z"/>
      </g>
    </g>
  </g>
</svg>