<?xml version="1.0" encoding="UTF-8"?>
<svg xmlns="http://www.w3.org/2000/svg" version="1.1" viewBox="0 0 64 64">
  <!-- Generator: Adobe Illustrator 28.7.1, SVG Export Plug-In . SVG Version: 1.2.0 Build 142)  -->
  <g>
    <g id="Glyph">
      <g>
        <circle cx="22.8834" cy="44" r="1"/>
        <path d="M34.50144,45h-8.80231c-.41412,1.1615-1.51379,2-2.81573,2s-2.40155-.8385-2.81567-2h-8.80237l-3.82922,7.6582c-.46875.93701-.41895,2.02832.13086,2.91895.55078.89111,1.50488,1.42285,2.55273,1.42285h25.52734c1.04785,0,2.00195-.53174,2.55273-1.42285.5498-.89062.59961-1.98193.13086-2.91895l-3.82922-7.6582ZM16.8834,53c-1.6543,0-3-1.3457-3-3s1.3457-3,3-3,3,1.3457,3,3-1.3457,3-3,3ZM23.8834,53c-.55231,0-1-.44775-1-1,0-.55231.44769-1,1-1s1,.44769,1,1c0,.55225-.44769,1-1,1ZM26.8834,50c-.55231,0-1-.44775-1-1,0-.55231.44769-1,1-1s1,.44769,1,1c0,.55225-.44769,1-1,1Z"/>
        <circle cx="16.8834" cy="50" r="1"/>
        <path d="M33.50339,43h-7.79999c-.41998-1.16003-1.52002-2-2.82001-2s-2.40002.83997-2.82001,2h-7.79999l3.62-7.23999v-14.76001h-1c-.54999,0-1-.45001-1-1s.45001-1,1-1h16c.54999,0,1,.45001,1,1s-.45001,1-1,1h-1v14.76001l3.62,7.23999Z"/>
        <path d="M55.8834,7h-18c-.55273,0-1,.44775-1,1v7h20v-7c0-.55225-.44727-1-1-1Z"/>
        <rect x="36.8834" y="17" width="20" height="2"/>
        <path d="M38.8834,45c0,4.41113,3.58887,8,8,8s8-3.58887,8-8v-24h-16v24ZM42.8834,24c0-.55225.44727-1,1-1h6c.55273,0,1,.44775,1,1v8c0,.55225-.44727,1-1,1h-6c-.55273,0-1-.44775-1-1v-8Z"/>
        <rect x="44.8834" y="25" width="4" height="6"/>
      </g>
    </g>
  </g>
</svg>