<?xml version="1.0" encoding="UTF-8"?>
<svg id="Glyph" xmlns="http://www.w3.org/2000/svg" version="1.1" viewBox="0 0 64 64">
  <path d="M27,26.38214l4.55273-2.27637c.14062-.07031.29395-.10547.44727-.10547s.30664.03516.44727.10547l4.55273,2.27637v-9.38184h-10v9.38184Z" fill="#000" stroke-width="0"/>
  <path d="M46,20.00031v18c0,1.64996-1.34998,3-3,3h-22c-1.65002,0-3-1.35004-3-3v-18c0-1.65002,1.34998-3,3-3h4v11c0,.34998.17999.66998.46997.84998.30005.17999.67004.20001.98004.04004l5.54999-2.77002s5.54999,2.77002,5.55008,2.77007c.65705.32815,1.44992-.1608,1.44992-.89006v-11h4c1.65002,0,3,1.34998,3,3Z" fill="#000" stroke-width="0"/>
  <path d="M50,43.00031H14c-3.85999,0-7,3.14001-7,7s3.14001,7,7,7h36c3.85999,0,7-3.14001,7-7s-3.14001-7-7-7ZM14,53.00031c-1.65002,0-3-1.35004-3-3s1.34998-3,3-3,3,1.34998,3,3-1.34998,3-3,3ZM23,53.00031c-1.65002,0-3-1.35004-3-3s1.34998-3,3-3,3,1.34998,3,3-1.34998,3-3,3ZM32,53.00031c-1.65002,0-3-1.35004-3-3s1.34998-3,3-3,3,1.34998,3,3-1.34998,3-3,3ZM41,53.00031c-1.65002,0-3-1.35004-3-3s1.34998-3,3-3,3,1.34998,3,3-1.34998,3-3,3ZM50,53.00031c-1.65002,0-3-1.35004-3-3s1.34998-3,3-3,3,1.34998,3,3-1.34998,3-3,3Z" fill="#000" stroke-width="0"/>
  <circle cx="41" cy="50.00031" r="1" fill="#000" stroke-width="0"/>
  <circle cx="32" cy="50.00031" r="1" fill="#000" stroke-width="0"/>
  <circle cx="14" cy="50.00031" r="1" fill="#000" stroke-width="0"/>
  <circle cx="23" cy="50.00031" r="1" fill="#000" stroke-width="0"/>
  <circle cx="50" cy="50.00031" r="1" fill="#000" stroke-width="0"/>
  <path d="M32.52979,11.00031c2.41443,0,4.43427,1.7207,4.89893,4h4.77704c-1.47699-.36505-2.36591-1.73773-2.36591-3.02979,0-.53564.14844-1.08105.43018-1.57715.27051-.47754.10547-1.08447-.37012-1.35938l-3.29004-1.8999c-.47803-.27637-1.08789-.11279-1.36523.36475-.57031.98389-1.58496,1.57129-2.71484,1.57129-1.13623,0-2.1499-.58545-2.71191-1.56689-.13184-.23047-.35059-.39893-.60693-.46826-.25635-.06982-.53027-.03369-.76074.09912l-3.29004,1.8999c-.47559.2749-.64062.88184-.36963,1.35938.28516.50342.42969,1.03027.42969,1.56689,0,1.29657-.88922,2.67413-2.36688,3.04004h4.77753c.46466-2.2793,2.4845-4,4.89893-4Z" fill="#000" stroke-width="0"/>
  <path d="M32.52979,13.00031c-1.30194,0-2.40161.8385-2.81573,2h5.63147c-.41412-1.1615-1.51379-2-2.81573-2Z" fill="#000" stroke-width="0"/>
</svg>