<?xml version="1.0" encoding="UTF-8"?>
<svg xmlns="http://www.w3.org/2000/svg" version="1.1" viewBox="0 0 48 48">
  <!-- Generator: Adobe Illustrator 28.7.1, SVG Export Plug-In . SVG Version: 1.2.0 Build 142)  -->
  <g>
    <g id="Glyph">
      <g>
        <path d="M24,14c-5.51416,0-10,4.48584-10,10s4.48584,10,10,10,10-4.48584,10-10-4.48584-10-10-10ZM31.96582,22.10596c-.06934.25928-.24023.47998-.47412.6123-.48535.27344-.76367.74072-.76367,1.28174s.27832,1.0083.76367,1.28174c.23389.13232.40479.35303.47412.6123.06982.25977.03174.53613-.10498.76758l-1.5918,2.69434c-.27637.46973-.87695.63037-1.35205.3623-.49658-.28125-1.08936-.27637-1.58252.01172-.47217.27588-.74268.73877-.74268,1.27002,0,.55225-.44775,1-1,1h-3.18359c-.55225,0-1-.44775-1-1,0-.53125-.27051-.99414-.74268-1.27002-.49316-.28809-1.08594-.29297-1.58252-.01172-.47461.26611-1.07568.10547-1.35205-.3623l-1.5918-2.69434c-.13672-.23145-.1748-.50781-.10498-.76758.06934-.25928.24023-.47998.47412-.6123.48535-.27344.76367-.74072.76367-1.28174s-.27832-1.0083-.76367-1.28174c-.23389-.13232-.40479-.35303-.47412-.6123-.06982-.25977-.03174-.53613.10498-.76758l1.5918-2.69434c.27734-.46924.87842-.62842,1.35205-.3623.49658.28125,1.08936.27637,1.58252-.01172.47217-.27588.74268-.73877.74268-1.27002,0-.55225.44775-1,1-1h3.18359c.55225,0,1,.44775,1,1,0,.53125.27051.99414.74268,1.27002.49316.28809,1.08594.29297,1.58252.01172.47266-.26807,1.0752-.10693,1.35205.3623l1.5918,2.69434c.13672.23145.1748.50781.10498.76758Z"/>
        <path d="M42,20h-2.50537c-.37256-1.44678-.94678-2.82812-1.71436-4.12354l1.77588-1.77588c.39062-.39062.39062-1.02344,0-1.41406l-4.24268-4.24268c-.39062-.39062-1.02344-.39062-1.41406,0l-1.77588,1.77588c-1.29541-.76758-2.67676-1.3418-4.12354-1.71436v-2.50537c0-.55225-.44775-1-1-1h-6c-.55225,0-1,.44775-1,1v2.50537c-1.44678.37256-2.82812.94678-4.12354,1.71436l-1.77588-1.77588c-.39062-.39062-1.02344-.39062-1.41406,0l-4.24268,4.24268c-.39062.39062-.39062,1.02344,0,1.41406l1.77588,1.77588c-.76758,1.29541-1.3418,2.67676-1.71436,4.12354h-2.50537c-.55225,0-1,.44775-1,1v6c0,.55225.44775,1,1,1h2.50537c.37256,1.44678.94678,2.82812,1.71436,4.12354l-1.77588,1.77588c-.39062.39062-.39062,1.02344,0,1.41406l4.24268,4.24268c.39062.39062,1.02344.39062,1.41406,0l1.77588-1.77588c1.29541.76758,2.67676,1.3418,4.12354,1.71436v2.50537c0,.55225.44775,1,1,1h6c.55225,0,1-.44775,1-1v-2.50537c1.44678-.37256,2.82812-.94678,4.12354-1.71436l1.77588,1.77588c.39062.39062,1.02344.39062,1.41406,0l4.24268-4.24268c.39062-.39062.39062-1.02344,0-1.41406l-1.77588-1.77588c.76758-1.29541,1.3418-2.67676,1.71436-4.12354h2.50537c.55225,0,1-.44775,1-1v-6c0-.55225-.44775-1-1-1ZM24,36c-6.6167,0-12-5.3833-12-12s5.3833-12,12-12,12,5.3833,12,12-5.3833,12-12,12Z"/>
        <path d="M28.97754,20.39014c-.88818.21729-1.83057.08643-2.65186-.39307-.78369-.45801-1.33984-1.16943-1.58838-1.99707h-1.47461c-.24854.82764-.80469,1.53906-1.58838,1.99707-.8208.47949-1.76318.61084-2.65186.39307l-.71631,1.2124c.61621.63574.96582,1.48145.96582,2.39746s-.34961,1.76172-.96582,2.39746l.71631,1.2124c.88672-.21875,1.83008-.08691,2.65186.39307.78369.45801,1.33984,1.16943,1.58838,1.99707h1.47461c.24854-.82764.80469-1.53906,1.58838-1.99707.82129-.47949,1.76318-.61084,2.65186-.39307l.71631-1.2124c-.61621-.63574-.96582-1.48145-.96582-2.39746s.34961-1.76172.96582-2.39746l-.71631-1.2124ZM24,27c-1.6543,0-3-1.3457-3-3s1.3457-3,3-3,3,1.3457,3,3-1.3457,3-3,3Z"/>
        <circle cx="24" cy="24" r="1"/>
      </g>
    </g>
  </g>
</svg>