<?xml version="1.0" encoding="UTF-8"?>
<svg id="Glyph" xmlns="http://www.w3.org/2000/svg" version="1.1" viewBox="0 0 48 48">
  <path d="M20.98468,36.83588c-.42523-.4054-.92883-.89923-1.48145-1.45734-.99951.17987-1.83276.40125-2.48907.62146.95673.32104,2.2757.64679,3.97052.83588Z" style="fill: #000; stroke-width: 0px;"/>
  <path d="M33.03003,30.32996c-.97504,1.21375-1.96747,2.33728-2.90253,3.34528,2.11676.51495,3.36432,1.18286,3.83636,1.47321.29492.18164.47559.50391.47559.85156s-.18066.66992-.47559.85156c-.81934.50391-3.95898,2.14844-9.96387,2.14844-6.00537,0-9.14404-1.64453-9.96289-2.14844-.2959-.18164-.47607-.50391-.47607-.85156s.18018-.66992.47607-.85156c.4718-.29034,1.71893-.95825,3.83551-1.47321-.93536-1.0083-1.92773-2.13171-2.90265-3.34528-3.66998,1.26001-5.96997,3.29004-5.96997,5.67004,0,3.98999,6.45001,7,15,7s15-3.01001,15-7c0-2.38-2.29999-4.41003-5.96997-5.67004Z" style="fill: #000; stroke-width: 0px;"/>
  <path d="M28.49664,35.37866c-.55347.55896-1.05701,1.05261-1.48157,1.45721,1.69464-.18909,3.01361-.51483,3.97028-.83588-.65625-.22021-1.48938-.44147-2.48871-.62134Z" style="fill: #000; stroke-width: 0px;"/>
  <path d="M23.37519,36.33021c.35033.31716.89948.31875,1.24963,0,.50507-.45978,12.37518-11.33331,12.37518-18.3302,0-7.16833-5.83167-13-13-13s-13,5.83167-13,13c0,6.99689,11.87012,17.87042,12.37519,18.33021ZM24,23.78571c-.55231,0-1-.44769-1-1s.44769-1,1-1,1,.44769,1,1-.44769,1-1,1ZM16.9292,14.12848c-.39062-.39062-.39062-1.02344,0-1.41406,3.89893-3.89941,10.24463-3.89746,14.14209,0,.39062.39062.39062,1.02343.00001,1.41405-.37543.37544-1.02196.39212-1.41407.00001-3.12012-3.11914-8.19531-3.11914-11.31396,0-.39062.39062-1.02344.39062-1.41406,0ZM19.75732,16.95758c-.39062-.39062-.39062-1.02344,0-1.41406,1.13184-1.13184,2.63867-1.75586,4.24268-1.75586,1.60449,0,3.11035.62402,4.24219,1.75586.39062.39062.39062,1.02341.00002,1.41404-.3863.38632-1.02841.3857-1.41409.00002-.75391-.75391-1.75879-1.16992-2.82812-1.16992-1.06982,0-2.07422.41602-2.82861,1.16992-.39062.39062-1.02344.39062-1.41406,0ZM21.87842,18.66461c1.13379-1.13281,3.10986-1.13281,4.24268,0,.39061.39061.39062,1.02436.00005,1.41401-.37324.37237-1.02547.38918-1.4146.00005-.37695-.37891-1.03613-.37891-1.41309,0-.39062.39062-1.02393.39062-1.41455,0-.39062-.38965-.39062-1.02344-.00049-1.41406Z" style="fill: #000; stroke-width: 0px;"/>
</svg>