<?xml version="1.0" encoding="UTF-8"?>
<svg xmlns="http://www.w3.org/2000/svg" version="1.1" viewBox="0 0 64 64">
  <!-- Generator: Adobe Illustrator 28.7.1, SVG Export Plug-In . SVG Version: 1.2.0 Build 142)  -->
  <g>
    <g id="Glyph">
      <g>
        <path d="M31,55.46002c0,.62.45001,1.10999,1,1.10999s1-.48999,1-1.10999v-11.89001h-2v11.89001Z"/>
        <path d="M15.33002,33.57001h13.33997c.86005,0,1.66003.23999,2.33002.64996v-2.64996c0-1.10004-1.07001-2-2.38-2h-11.23999c-1.41003,0-2.65002-.62-3.45001-1.56-.41998,1.32996-.69,2.70996-.83002,4.10999.28003.83002,1.17004,1.45001,2.23004,1.45001Z"/>
        <path d="M48.66998,33.57001c1.06,0,1.95001-.62,2.23004-1.45001-.14001-1.40002-.41003-2.78003-.83002-4.10999-.79999.94-2.03998,1.56-3.45001,1.56h-11.23999c-1.31,0-2.38.89996-2.38,2v2.64996c.66998-.40997,1.46997-.64996,2.33002-.64996h13.33997Z"/>
        <path d="M21,21.57001h8c.72998,0,1.40997.20001,2,.53998V7.42999l-.59003,2.06c-.37994,1.35999-1.06,2.59003-2,3.67999-.94,1.07001-2.08997,1.91003-3.38995,2.47998-2.25.99005-4.28003,2.36005-6.01001,4.06006.08002,1.03998.94,1.85999,1.98999,1.85999Z"/>
        <path d="M43,21.57001c1.04999,0,1.90997-.82001,1.98999-1.85999-1.72998-1.70001-3.76001-3.07001-6.01001-4.06006-1.29999-.56995-2.44995-1.40997-3.38995-2.47998-.94-1.08997-1.62006-2.32001-2-3.69l-.59003-2.04999v14.67999c.59003-.33997,1.27002-.53998,2-.53998h8Z"/>
        <path d="M17.38,27.57001h11.23999c.88,0,1.70001.23999,2.38.65997v-2.65997c0-1.10004-.90002-2-2-2h-8c-1.53003,0-2.84998-.88-3.52002-2.15002-.42999.53003-.82996,1.06-1.20996,1.63-.47003.72998-.89001,1.48999-1.27002,2.27002v.25c0,1.09998,1.07001,2,2.38,2Z"/>
        <path d="M46.62,27.57001c1.31,0,2.38-.90002,2.38-2v-.25c-.38-.78003-.79999-1.54004-1.27002-2.27002-.38-.57001-.77997-1.09998-1.20996-1.63-.67004,1.27002-1.98999,2.15002-3.52002,2.15002h-8c-1.09998,0-2,.89996-2,2v2.65997c.67999-.41998,1.5-.65997,2.38-.65997h11.23999Z"/>
        <path d="M28.66998,35.57001h-13.33997c-.84003,0-1.62-.23004-2.29004-.62.09003.94995.32001,1.85999.69,2.73999.48999,1.15997,1.17999,2.20001,2.06,3.08997,1.80005,1.80005,4.20001,2.79004,6.75,2.79004h8.46002v-6c0-1.10004-1.04999-2-2.33002-2Z"/>
        <path d="M48.66998,35.57001h-13.33997c-1.28003,0-2.33002.89996-2.33002,2v6h8.46002c2.54999,0,4.94995-.98999,6.75-2.79004.88-.88995,1.57001-1.92999,2.06-3.08997.37-.88.59998-1.79004.69-2.73999-.67004.38995-1.45001.62-2.29004.62Z"/>
      </g>
    </g>
  </g>
</svg>