<?xml version="1.0" encoding="UTF-8"?>
<svg xmlns="http://www.w3.org/2000/svg" version="1.1" viewBox="0 0 64 64">
  <!-- Generator: Adobe Illustrator 28.7.1, SVG Export Plug-In . SVG Version: 1.2.0 Build 142)  -->
  <g>
    <g id="Glyph">
      <g>
        <path d="M32,7c-13.78516,0-25,11.21484-25,25s11.21484,25,25,25,25-11.21484,25-25S45.78516,7,32,7ZM32,53c-11.57959,0-21-9.4209-21-21,0-.55273.44775-1,1-1s1,.44727,1,1c0,10.47656,8.52344,19,19,19,.55225,0,1,.44727,1,1s-.44775,1-1,1ZM42.7998,27.59961s-14.97804,19.97072-14.99998,19.99997c-.26261.35014-.7728.50694-1.20803.31351-.42627-.19043-.66406-.65137-.57227-1.10938l2.26074-11.30371h-6.28027c-.31396,0-.60938-.14746-.79834-.39746-.18896-.25098-.24951-.5752-.16309-.87695l5-17.5c.12256-.42969.51514-.72559.96143-.72559h10c.30811,0,.59863.1416.78809.38477.18945.24219.25684.55859.18213.85742l-2.18945,8.75781h6.21924c.37891,0,.7251.21387.89453.55273s.13281.74414-.09473,1.04688ZM52,33c-.55225,0-1-.44727-1-1,0-10.47656-8.52344-19-19-19-.55225,0-1-.44727-1-1s.44775-1,1-1c11.57959,0,21,9.4209,21,21,0,.55273-.44775,1-1,1Z"/>
        <path d="M33.71191,27.61523c-.18945-.24219-.25684-.55859-.18213-.85742l2.18945-8.75781h-7.96484l-4.42871,15.5h6.17432c.2998,0,.5835.13477.77344.36621s.26611.53613.20703.83008l-1.63525,8.17676,11.15479-14.87305h-5.5c-.30811,0-.59863-.1416-.78809-.38477Z"/>
      </g>
    </g>
  </g>
</svg>