<?xml version="1.0" encoding="UTF-8"?>
<svg id="Glyph" xmlns="http://www.w3.org/2000/svg" version="1.1" viewBox="0 0 48 48">
  <path d="M16,23h8c1.10455,0,2-.89545,2-2-2.76001,0-5-2.23999-5-5s2.23999-5,5-5c0-1.10461-.89545-2-2-2h-8c-1.10455,0-2,.89539-2,2v10c0,1.10455.89545,2,2,2Z" fill="#000" stroke-width="0"/>
  <circle cx="26" cy="16" r="3" fill="#000" stroke-width="0"/>
  <path d="M21,5h-2c-1.09998,0-2,.89996-2,2h6c0-1.10004-.90002-2-2-2Z" fill="#000" stroke-width="0"/>
  <path d="M19,27h2c1.09998,0,2-.90002,2-2h-6c0,1.09998.90002,2,2,2Z" fill="#000" stroke-width="0"/>
  <path d="M11,31h17v2h6v-2c4.96002,0,9-4.04004,9-9s-4.03998-9-9-9h-4c.63.82996,1,1.87,1,3s-.37,2.16998-1,3h3.77002c.89996,0,1.77997.38,2.40997,1.03998.56.59003.85004,1.34003.82001,2.10004-.03998.73999-.34998,1.44995-.87,1.97998-.58002.57001-1.34003.88-2.13.88h-5c-.54999,0-1,.45001-1,1v3H11c-.55225,0-1,.44775-1,1s.44775,1,1,1Z" fill="#000" stroke-width="0"/>
  <rect x="5" y="40" width="38" height="3" rx="1" ry="1" fill="#000" stroke-width="0"/>
  <path d="M41,37c0-1.10461-.89545-2-2-2H9c-1.10455,0-2,.89539-2,2v1h34v-1Z" fill="#000" stroke-width="0"/>
</svg>