<?xml version="1.0" encoding="UTF-8"?>
<svg xmlns="http://www.w3.org/2000/svg" version="1.1" viewBox="0 0 48 48">
  <!-- Generator: Adobe Illustrator 28.7.1, SVG Export Plug-In . SVG Version: 1.2.0 Build 142)  -->
  <g>
    <g id="Glyph">
      <g>
        <path d="M15,35c-2.20544,0-4,1.79449-4,4s1.79456,4,4,4,4-1.79456,4-4-1.79456-4-4-4ZM15,40c-.55176,0-1-.44873-1-1s.44824-1,1-1,1,.44873,1,1-.44824,1-1,1Z"/>
        <path d="M31,35c-2.20544,0-4,1.79449-4,4s1.79456,4,4,4,4-1.79456,4-4-1.79456-4-4-4ZM31,40c-.55176,0-1-.44873-1-1s.44824-1,1-1,1,.44873,1,1-.44824,1-1,1Z"/>
        <circle cx="14" cy="22" r="1"/>
        <path d="M21,29v-12H7v12h14ZM14,19c1.6543,0,3,1.3457,3,3s-1.3457,3-3,3-3-1.3457-3-3,1.3457-3,3-3Z"/>
        <path d="M23,29h14v-3c0-1.10461-.89545-2-2-2h-12v5Z"/>
        <rect x="29" y="19" width="6" height="3"/>
        <rect x="5" y="11" width="18" height="4" rx="1" ry="1"/>
        <rect x="27" y="13" width="10" height="4" rx="1" ry="1"/>
        <path d="M42.79999,37.39996l-4.80206-6.39996H6c-.55231,0-1,.44769-1,1v6c0,.54999.45001,1,1,1h3c0-3.31,2.69-6,6-6s6,2.69,6,6h4c0-3.31,2.69-6,6-6s6,2.69,6,6h5c.38,0,.71997-.21002.89001-.54999.16998-.34003.14001-.75-.09003-1.05005Z"/>
      </g>
    </g>
  </g>
</svg>