<?xml version="1.0" encoding="UTF-8"?>
<svg id="Glyph" xmlns="http://www.w3.org/2000/svg" version="1.1" viewBox="0 0 48 48">
  <path d="M24,5C13.52344,5,5,13.52344,5,24s8.52344,19,19,19,19-8.52344,19-19S34.47656,5,24,5ZM20,32.3623h-3.82812c-1.03613,0-1.98486-.52344-2.5376-1.3999-.55225-.87695-.61572-1.95801-.16895-2.89307l2.29449-4.80328-.41315.12946c-.52686.16553-1.08838-.12744-1.25342-.65479-.16553-.52734.12793-1.08838.65479-1.25342l2.69922-.84619c.5293-.16455,1.08887.12842,1.25342.65479l.84619,2.69873c.16552.52733-.12791,1.08835-.65475,1.25341-.50738.15896-1.08816-.1269-1.25346-.65477l-.11737-.37445-2.25128,4.71283c-.15137.31641-.13086.66748.05615.96387.18701.29688.49512.4668.8457.4668h3.82812c.55225,0,1,.44775,1,1s-.44775,1-1,1ZM23.09766,12.56885l-2.9751,6.22461c-.23926.49902-.83643.70801-1.3335.47119-.49854-.23828-.70947-.83545-.47119-1.3335l2.9751-6.22461c.50342-1.05273,1.54053-1.70654,2.70703-1.70654s2.20361.65381,2.70703,1.70654l2.06348,4.31726.11523-.33972c.17725-.52295.74512-.80176,1.26807-.62549.52295.17725.80322.74512.62549,1.26807l-.90869,2.67871c-.08496.25098-.2666.45801-.50439.57568-.04557.02255-.76367.20272-.76367.04981l-2.67871-.90918c-.52295-.17725-.80322-.74512-.62549-1.26807.17676-.52295.74414-.80273,1.26807-.62549l.4436.15045-2.10767-4.40973c-.34082-.71289-1.46387-.71289-1.80469,0ZM34.36572,30.9624c-.55273.87646-1.50146,1.3999-2.5376,1.3999h-4.6889l.16156.13525c.42333.35449.479.98485.12453,1.40819-.34237.40888-.98553.47928-1.40822.12502l-2.16943-1.81543c-.42334-.354-.479-.98486-.125-1.4082l1.81494-2.16895c.35449-.42432.98535-.479,1.40869-.12549.42383.35449.47998.98535.12549,1.40869l-.3689.44092h5.12524c.35059,0,.65869-.16992.8457-.4668.18701-.29639.20752-.64746.05615-.96387l-2.93213-6.13818c-.23828-.49854-.02686-1.09521.47119-1.3335.49854-.23828,1.0957-.02783,1.3335.47119l2.93213,6.13818c.44678.93506.3833,2.01611-.16895,2.89307Z" fill="#000" stroke-width="0"/>
</svg>