<?xml version="1.0" encoding="UTF-8"?>
<svg id="Glyph" xmlns="http://www.w3.org/2000/svg" version="1.1" viewBox="0 0 64 64">
  <path d="M33,26c0,.55225-.44727,1-1,1s-1-.44775-1-1v-2.61505l-5,8.33337v15.28168h12v-15.28168l-5-8.33337v2.61505ZM33,44c0,.55225-.44727,1-1,1s-1-.44775-1-1v-2c0-.55225.44727-1,1-1s1,.44775,1,1v2ZM33,38c0,.55225-.44727,1-1,1s-1-.44775-1-1v-2c0-.55225.44727-1,1-1s1,.44775,1,1v2ZM33,32c0,.55225-.44727,1-1,1s-1-.44775-1-1v-2c0-.55225.44727-1,1-1s1,.44775,1,1v2Z" style="fill: #000; stroke-width: 0px;"/>
  <polygon points="24 47 24 35.0517 16.83105 47 24 47" style="fill: #000; stroke-width: 0px;"/>
  <polygon points="40 47 47.16895 47 40 35.0517 40 47" style="fill: #000; stroke-width: 0px;"/>
  <path d="M56.85742,51.48535L32.85742,11.48535c-.36133-.60254-1.35352-.60254-1.71484,0L7.14258,51.48535c-.18555.30908-.19043.69385-.0127,1.00732s.50977.50732.87012.50732h48c.36035,0,.69238-.19385.87012-.50732s.17285-.69824-.0127-1.00732ZM49.80566,48.49268c-.17773.31348-.50977.50732-.87012.50732H15.06445c-.36035,0-.69238-.19385-.87012-.50732s-.17285-.69824.0127-1.00732l16.93555-28.22559c.36133-.60254,1.35352-.60254,1.71484,0l16.93555,28.22559c.18555.30908.19043.69385.0127,1.00732Z" style="fill: #000; stroke-width: 0px;"/>
</svg>