<?xml version="1.0" encoding="UTF-8"?>
<svg xmlns="http://www.w3.org/2000/svg" version="1.1" viewBox="0 0 48 48">
  <!-- Generator: Adobe Illustrator 28.7.1, SVG Export Plug-In . SVG Version: 1.2.0 Build 142)  -->
  <g>
    <g id="Glyph">
      <g>
        <path d="M7.65001,27.06c-.39001.14996-.65002.51996-.65002.94v10c0,.35995.19998.69995.51994.87996.30739.17293.71326.15557,1.01009-.02998l3.75995-2.34998c-1.19995-2.98004-1.98999-6.66003-2.21997-10.35004l-2.41998.91003Z"/>
        <path d="M40.34997,27.06l-2.41998-.91003c-.22998,3.69-1.02002,7.37-2.21997,10.35004,0,0,3.75995,2.34998,3.76002,2.35002.29847.18653.70114.20367,1.00994.02998.32001-.17999.52002-.52002.52002-.88v-10c0-.42004-.26001-.79004-.65002-.94Z"/>
        <path d="M8.40819,14.09375l1.40137-.81836,1.40234.81836c.45883.26776,1.08231.24657,1.52832-.07812.44824-.32715.66211-.88867.54395-1.42871l-.34473-1.58594,1.20996-1.0791c.41406-.36914.57129-.94922.40039-1.47656-.1709-.52832-.63867-.90527-1.19238-.96191l-1.61328-.16211s-.65332-1.48438-.65332-1.48535c-.22363-.50781-.72656-.83594-1.2832-.83594-.55566,0-1.05762.33008-1.2793.83594l-.6543,1.48535-1.61523.16211c-.55078.05664-1.01855.43359-1.18945.96094s-.01562,1.10645.39844,1.47656l1.21094,1.08008-.34473,1.58691c-.11719.54199.09766,1.10254.5459,1.42871.44727.3252,1.04785.35547,1.52832.07715Z"/>
        <path d="M42.93065,9.80176c-.1709-.52734-.63867-.9043-1.19141-.96094l-1.61328-.16211-.65332-1.4834c-.22266-.50781-.72559-.83691-1.28223-.83789-.55371,0-1.05664.32812-1.28125.83691l-.65332,1.48438-1.61426.16211c-.55273.05664-1.02051.43359-1.19141.96191-.1709.52734-.01367,1.10742.39941,1.47559l1.21094,1.08008-.34473,1.58496c-.11816.54296.0957,1.10448.54588,1.43163.43149.31357,1.04716.35487,1.52736.07618l1.40137-.81836,1.40039.81738c.47754.27832,1.0791.25,1.52734-.07422.44922-.32617.66504-.88672.54785-1.43262l-.34473-1.58496,1.21191-1.08105c.41309-.36914.56836-.94824.39746-1.47559Z"/>
        <path d="M24.59081,5.19336c-.35156-.25781-.83008-.25781-1.18164,0-.46582.3418-11.40918,8.47754-11.40918,18.80664,0,4.43693.92611,9.03733,2.43214,12.42042.15945.35818.52122.57958.91329.57958h5.65457v-8c0-.55228.44772-1,1-1h4c.55228,0,1,.44772,1,1v8h5.65457c.39207,0,.75384-.2214.91329-.57958,1.50603-3.38309,2.43214-7.98349,2.43214-12.42042,0-10.3291-10.94336-18.46484-11.40918-18.80664ZM23.99999,26c-3.85938,0-7-3.14062-7-7s3.14062-7,7-7,7,3.14062,7,7-3.14062,7-7,7Z"/>
        <path d="M23.99999,14c-2.75684,0-5,2.24316-5,5s2.24316,5,5,5,5-2.24316,5-5-2.24316-5-5-5ZM23.99999,18c-.55176,0-1,.44824-1,1,0,.55273-.44727,1-1,1s-1-.44727-1-1c0-1.6543,1.3457-3,3-3,.55273,0,1,.44727,1,1s-.44727,1-1,1Z"/>
        <rect x="22.99999" y="30" width="2" height="7"/>
        <path d="M21.99999,39h-3v2c0,1.10457.89543,2,2,2h6c1.10457,0,2-.89543,2-2v-2h-7Z"/>
      </g>
    </g>
  </g>
</svg>