<?xml version="1.0" encoding="UTF-8"?>
<svg xmlns="http://www.w3.org/2000/svg" version="1.1" viewBox="0 0 64 64">
  <!-- Generator: Adobe Illustrator 28.7.1, SVG Export Plug-In . SVG Version: 1.2.0 Build 142)  -->
  <g>
    <g id="Glyph">
      <g>
        <path d="M19.6103,25.94066l1.84998-2.16003c1.03998-1.20996,2.44-2.01996,3.97998-2.32001-.54999-.69-.97998-1.46997-1.26001-2.31995l-1.14996-3.46002c-.13-.38-.48004-.65002-.88-.67999-.40002-.02002-.78003.19-.96002.54999l-1.54999,3.09003c-1.20001,2.40997-1.31,5.19995-.39001,7.64996.13-.09998.25-.21997.36005-.34998Z"/>
        <path d="M8.20869,28.21794c.23218.83008.38898,1.67383.50598,2.52142l6.8031,3.63239c3.21704,1.75549,5.44946,4.87866,6.12537,8.44788,1.03223.10681,2.06824.18103,3.1012.18103h9.72803c4.95459,0,9.88281-.69043,14.64746-2.05273l6.67578-1.90869,1.0567-.26367c-.60956-2.27844-2.49628-4.03119-4.9566-4.38281l-.16016-.02295c-1.83325-.26184-3.64471-.66925-5.42578-1.18457l-2.521,2.521c-1.53662,1.53662-3.59717,2.33203-5.67041,2.33203-1.50195,0-3.01074-.41699-4.33252-1.27246l-13.16101-9.02228c-.91125.80261-2.08411,1.25714-3.31555,1.25714-1.19873,0-2.36035-.42969-3.27051-1.20996l-5.30762-4.54932c-.33398-.28564-.81494-.31982-1.18555-.08594-.37109.23486-.54541.68457-.43018,1.1084,0,0,.49561,1.81689,1.09326,3.9541Z"/>
        <path d="M21.97981,26.24779l12.91492,8.85394c2.33643,1.51025,5.49219,1.17822,7.47998-.80957l1.79205-1.79205c-1.25018-.43872-2.4812-.93036-3.68225-1.48962l-2.6972,2.6972c-.3864.3864-1.02812.38594-1.41406,0-.39062-.39062-.39062-1.02344,0-1.41406l2.21991-2.21991c-1.00458-.53363-1.97809-1.12195-2.93268-1.7392,0,0-2.36687,2.36687-2.37318,2.37318-.37424.37424-1.02385.39019-1.41405-.00001-.39062-.39062-.39062-1.02344,0-1.41406l2.08801-2.08801-2.76843-1.90344-2.40552,2.40552c-.37443.37443-1.02376.3903-1.41406,0-.39062-.39063-.39062-1.02344,0-1.41406l2.13605-2.13605c-2.09998-1.37439-4.88562-.99298-6.52814.92218l-1.00134,1.16803Z"/>
        <path d="M14.56758,36.132l-5.65771-3.02063c.02063,1.63647-.16888,3.2724-.56451,4.8642l.28961.19305c2.82831,2.12097,6.74933,3.64575,10.91327,4.36389-.70087-2.70813-2.49567-5.04474-4.98065-6.40051Z"/>
        <path d="M56.31269,40.97087l-6.64307,1.8999c-4.94385,1.41309-10.05664,2.12988-15.19727,2.12988h-9.72803c-6.26196,0-12.74365-1.93005-17.02301-5.03857-.14276.3877-.28552.77563-.45404,1.15479-.83643,1.88379-.11816,4.0752,1.67139,5.09717,3.18945,1.82324,6.81787,2.78662,10.49219,2.78662h19.75c6.65088,0,12.90381-2.58984,17.60645-7.29297.1875-.1875.29297-.44189.29297-.70703v-.22119l-.76758.19141Z"/>
      </g>
    </g>
  </g>
</svg>