<?xml version="1.0" encoding="UTF-8"?>
<svg id="Glyph" xmlns="http://www.w3.org/2000/svg" version="1.1" viewBox="0 0 64 64">
  <path d="M24,23c0-4.41113,3.58887-8,8-8s8,3.58887,8,8c0,.33807-.03461.66992-.0755,1h9.0755v-3c0-.55273-.44727-1-1-1h-2.59277c-.07129-.24219-.14746-.47754-.22852-.70801l1.55566-2.80664c.1709-.30762.16797-.68066-.00781-.98535l-1.5-2.59961c-.27637-.47754-.88672-.64062-1.36523-.36719l-2.25684,1.29883c-.18359-.17383-.36816-.34082-.55273-.49902l-.05176-3.20996c-.00586-.35156-.19531-.67383-.5-.84961l-2.59961-1.5c-.47852-.27637-1.08984-.11426-1.36621.36621l-1.29688,2.24609c-.23828-.05566-.48145-.10547-.72949-.14941l-1.65039-2.75098c-.18066-.30078-.50635-.48535-.85742-.48535h-3c-.55225,0-1,.44727-1,1v2.59277c-.24219.07129-.47803.14746-.7085.22852l-2.80664-1.55566c-.30566-.1709-.68018-.16699-.98438.00781l-2.6001,1.5c-.47803.27539-.64258.88672-.36719,1.36523l1.29883,2.25684c-.17432.18359-.34082.36816-.49902.55273l-3.20898.05176c-.35156.00586-.67432.19531-.8501.5l-1.5,2.59961c-.27588.47852-.11182,1.08984.36621,1.36621l2.24512,1.29688c-.05566.2373-.10547.47949-.14941.72949l-2.75049,1.65039c-.30127.18066-.48535.50586-.48535.85742h9.0755c-.04089-.33008-.0755-.66193-.0755-1Z" fill="#000" stroke-width="0"/>
  <path d="M32,17c-3.30859,0-6,2.69141-6,6,0,.33923.0332.67236.08771,1h11.82458c.0545-.32764.08771-.66077.08771-1,0-3.30859-2.69141-6-6-6Z" fill="#000" stroke-width="0"/>
  <path d="M54,26H10c-1.65002,0-3,1.34998-3,3v6c0,1.64996,1.34998,3,3,3h44c1.65002,0,3-1.35004,3-3v-6c0-1.65002-1.34998-3-3-3ZM45,33c0,.54999-.45001,1-1,1s-1-.45001-1-1v-2c0-.54999.45001-1,1-1s1,.45001,1,1v2ZM49,33c0,.54999-.45001,1-1,1s-1-.45001-1-1v-2c0-.54999.45001-1,1-1s1,.45001,1,1v2ZM53,33c0,.54999-.45001,1-1,1s-1-.45001-1-1v-2c0-.54999.45001-1,1-1s1,.45001,1,1v2Z" fill="#000" stroke-width="0"/>
  <path d="M53,40v16c0,.54999-.45001,1-1,1h-4c-.51001,0-.94-.39001-.98999-.90002l-.75-7.09998h-28.52002l-.75,7.09998c-.04999.51001-.47998.90002-.98999.90002h-4c-.54999,0-1-.45001-1-1v-16h7.69l-.73999,7h28.09998l-.73999-7h7.69Z" fill="#000" stroke-width="0"/>
</svg>