<?xml version="1.0" encoding="UTF-8"?>
<svg xmlns="http://www.w3.org/2000/svg" version="1.1" viewBox="0 0 48 48">
  <!-- Generator: Adobe Illustrator 28.7.1, SVG Export Plug-In . SVG Version: 1.2.0 Build 142)  -->
  <g>
    <g id="Glyph">
      <path d="M27.90625,20.46387l-.7832-12.53027c-.10352-1.64551-1.47461-2.93359-3.12305-2.93359s-3.01953,1.28809-3.12305,2.93359l-.7832,12.53027c-1.31836,1.13672-2.09375,2.79883-2.09375,4.53613v12c0,3.30859,2.69141,6,6,6s6-2.69141,6-6v-12c0-1.7373-.77539-3.39941-2.09375-4.53613ZM24,38c-.55231,0-1-.44775-1-1,0-.55231.44769-1,1-1s1,.44769,1,1c0,.55225-.44769,1-1,1ZM25,33c0,.55273-.44727,1-1,1s-1-.44727-1-1v-8c0-.55273.44727-1,1-1s1,.44727,1,1v8Z"/>
    </g>
  </g>
</svg>