<?xml version="1.0" encoding="utf-8"?>
<!-- Generator: Adobe Illustrator 27.3.1, SVG Export Plug-In . SVG Version: 6.00 Build 0)  -->
<svg version="1.1" id="Glyph" xmlns="http://www.w3.org/2000/svg" xmlns:xlink="http://www.w3.org/1999/xlink" x="0px" y="0px"
	 viewBox="0 0 48 48" enable-background="new 0 0 48 48" xml:space="preserve">
<g>
	<path d="M19.92285,16.9375L15.84473,24l4.07812,7.0625h8.1543L32.15527,24l-4.07812-7.0625H19.92285z M24,29
		c-0.55231,0-1-0.44775-1-1c0-0.55231,0.44769-1,1-1s1,0.44769,1,1C25,28.55225,24.55231,29,24,29z M25,24c0,0.55225-0.44727,1-1,1
		s-1-0.44775-1-1v-4c0-0.55225,0.44727-1,1-1s1,0.44775,1,1V24z"/>
	<path d="M17.61328,12.9375L11.22559,24l6.3877,11.0625h12.77344L36.77441,24l-6.3877-11.0625H17.61328z M34.17578,24.5
		l-4.65527,8.0625c-0.17871,0.30957-0.50879,0.5-0.86621,0.5H19.3457c-0.35742,0-0.6875-0.19043-0.86621-0.5L13.82422,24.5
		c-0.17871-0.30957-0.17871-0.69043,0-1l4.65527-8.0625c0.17871-0.30957,0.50879-0.5,0.86621-0.5h9.30859
		c0.35742,0,0.6875,0.19043,0.86621,0.5L34.17578,23.5C34.35449,23.80957,34.35449,24.19043,34.17578,24.5z"/>
	<path d="M24,5C13.52344,5,5,13.52344,5,24s8.52344,19,19,19s19-8.52344,19-19S34.47656,5,24,5z M31.83008,36.5625
		c-0.17871,0.30957-0.50879,0.5-0.86621,0.5H17.03613c-0.35742,0-0.6875-0.19043-0.86621-0.5L9.20508,24.5
		c-0.17871-0.30957-0.17871-0.69043,0-1l6.96484-12.0625c0.17871-0.30957,0.50879-0.5,0.86621-0.5h13.92773
		c0.35742,0,0.6875,0.19043,0.86621,0.5L38.79492,23.5c0.17871,0.30957,0.17871,0.69043,0,1L31.83008,36.5625z"/>
</g>
</svg>
