<?xml version="1.0" encoding="utf-8"?>
<!-- Generator: Adobe Illustrator 27.3.1, SVG Export Plug-In . SVG Version: 6.00 Build 0)  -->
<svg version="1.1" id="Glyph" xmlns="http://www.w3.org/2000/svg" xmlns:xlink="http://www.w3.org/1999/xlink" x="0px" y="0px"
	 viewBox="0 0 64 64" enable-background="new 0 0 64 64" xml:space="preserve">
<g>
	<path d="M26.93749,31.00195c1.81837-0.11816,3.06837-0.5498,4.39259-1.00781c1.03418-0.35742,2.10449-0.72754,3.49219-0.97852
		c2.29962-0.41046,4.729-0.32648,7.24622,0.23486c-1.28052-2.35052-2.95758-4.92932-5.01184-7.67529
		C35.52832,19.5332,33.83105,17.44824,32,15.36426c-1.83105,2.08398-3.52832,4.16895-5.05664,6.21094
		c-2.35956,3.15399-4.22388,6.08881-5.55603,8.70758C23.25043,30.86133,25.11371,31.11798,26.93749,31.00195z"/>
	<path d="M43.27002,31.64001c-2.85004-0.88-5.57001-1.10004-8.09003-0.66003c-1.23999,0.22998-2.19,0.56-3.20001,0.90002
		C30.59003,32.37,29.15997,32.85999,27.06,33c-0.34003,0.01996-0.67999,0.02997-1.02002,0.02997
		c-1.82996,0-3.67999-0.32001-5.51996-0.91998C19.52002,34.39996,19,36.39001,19,38c0,7.16998,5.83002,13,13,13
		c2.71002,0,5.22998-0.83002,7.32001-2.26001l-1.03003-1.03003c-0.38995-0.38995-0.38995-1.02997,0-1.41998
		c0.39001-0.39001,1.03003-0.39001,1.42004,0l1.17999,1.17999C43.41998,45.10999,45,41.72998,45,38
		C45,36.27997,44.40002,34.13,43.27002,31.64001z M32,49c-6.07001,0-11-4.92999-11-11c0-0.54999,0.45001-1,1-1s1,0.45001,1,1
		c0,4.95996,4.03998,9,9,9c0.54999,0,1,0.45001,1,1S32.54999,49,32,49z"/>
	<path d="M32,53c-8.27002,0-15-6.73004-15-15c0-4.17004,2.96002-10.42999,8.34003-17.62c1.76996-2.37,3.75995-4.78003,5.90997-7.19
		c0.39001-0.42004,1.10999-0.42004,1.5,0c2.15002,2.40997,4.14001,4.82001,5.90997,7.19C44.03998,27.57001,47,33.82996,47,38
		c0,4.27997-1.81,8.14996-4.70001,10.89001L45.13,51.71997C48.75,48.26001,51,43.39001,51,38
		C51,25.72998,33.45001,8.03998,32.71002,7.28998c-0.39001-0.39001-1.03003-0.39001-1.42004,0
		c-0.23932,0.24255-2.24054,2.26331-4.83398,5.29309l-2.68744-3.22369C23.57812,9.13184,23.29688,9,23,9h-8.18427
		C14.40161,7.8385,13.30194,7,12,7c-1.6543,0-3,1.3457-3,3s1.3457,3,3,3c1.30194,0,2.40161-0.8385,2.81573-2h7.71552
		l2.61609,3.13837C19.82935,20.58295,13,30.34564,13,38c0,10.47998,8.52002,19,19,19c4.37,0,8.40002-1.48004,11.60999-3.97003
		L40.75,50.16998C38.28998,51.95001,35.27002,53,32,53z"/>
	<path d="M8,21h10c0.55273,0,1-0.44727,1-1v-4c0-0.55273-0.44727-1-1-1H8c-0.55273,0-1,0.44727-1,1v4C7,20.55273,7.44727,21,8,21z"
		/>
	<path d="M8,25h6c0.55273,0,1-0.44727,1-1s-0.44727-1-1-1H8c-0.55273,0-1,0.44727-1,1S7.44727,25,8,25z"/>
	<path d="M12,27H8c-0.55273,0-1,0.44727-1,1s0.44727,1,1,1h4c0.55273,0,1-0.44727,1-1S12.55273,27,12,27z"/>
	<path d="M54,51c-1.30194,0-2.40161,0.8385-2.81573,2h-4.77429L45.13,51.71997c-0.47998,0.46002-0.98999,0.90002-1.52002,1.31
		l1.67999,1.67999C45.47998,54.89001,45.72998,55,46,55h5.18433c0.41412,1.1615,1.51373,2,2.81567,2c1.6543,0,3-1.3457,3-3
		S55.6543,51,54,51z"/>
	<path d="M56,47h-5c-0.55273,0-1,0.44727-1,1s0.44727,1,1,1h5c0.55273,0,1-0.44727,1-1S56.55273,47,56,47z"/>
	<path d="M53,45h3c0.55273,0,1-0.44727,1-1s-0.44727-1-1-1h-3c-0.55273,0-1,0.44727-1,1S52.44727,45,53,45z"/>
</g>
</svg>
