<?xml version="1.0" encoding="UTF-8"?>
<svg xmlns="http://www.w3.org/2000/svg" version="1.1" viewBox="0 0 48 48">
  <!-- Generator: Adobe Illustrator 28.7.1, SVG Export Plug-In . SVG Version: 1.2.0 Build 142)  -->
  <g>
    <g id="Glyph">
      <g>
        <ellipse cx="34.87601" cy="20" rx="1.0155" ry="1"/>
        <path d="M27.2687,21.28174c-.48631.26988-.6642.89919-.37585,1.37988l1.61647,2.69434c.28164.46875.89154.63086,1.3735.3623.50477-.28125,1.10475-.27539,1.60754.01172.47899.27588.75369.73877.75369,1.27002,0,.55225.4542,1,1.0155,1h3.23293c.5613,0,1.0155-.44775,1.0155-1,0-.53125.2747-.99414.75369-1.27002.50279-.28711,1.10277-.29248,1.60754-.01172.48395.26855,1.09285.10645,1.3735-.3623l1.61644-2.69428c.28433-.47393.10044-1.11515-.37582-1.37994-.49287-.27344-.77551-.74072-.77551-1.28174s.28261-1.00827.77546-1.28171c.46664-.2589.6712-.88765.37591-1.37991l-1.61647-2.69434c-.28065-.46777-.88955-.62891-1.3735-.3623-.50577.28125-1.10574.27637-1.60754-.01172-.47899-.27588-.75369-.73877-.75369-1.27002,0-.55225-.4542-1-1.0155-1h-3.23293c-.5613,0-1.0155.44775-1.0155,1,0,.53125-.2747.99414-.75369,1.27002-.50279.28809-1.10178.29346-1.60754.01172-.48197-.2666-1.09186-.10547-1.3735.3623l-1.61646,2.69433c-.28875.48128-.11004,1.10976.37585,1.37989.49287.27344.77551.74072.77551,1.28174s-.28261,1.00825-.77551,1.28174ZM34.87601,17c1.67994,0,3.0465,1.3457,3.0465,3s-1.36656,3-3.0465,3-3.0465-1.3457-3.0465-3,1.36656-3,3.0465-3Z"/>
        <ellipse cx="16.59704" cy="13" rx="1.0155" ry="1"/>
        <path d="M8.98973,14.28174c-.48716.27042-.664.89953-.37585,1.37988l1.61647,2.69434c.28164.46826.89054.63037,1.3735.3623.50477-.28125,1.10475-.27637,1.60754.01172.47899.27588.75369.73877.75369,1.27002,0,.55225.4542,1,1.0155,1h3.23293c.5613,0,1.0155-.44775,1.0155-1,0-.53125.2747-.99414.75369-1.27002.50378-.28711,1.10376-.29248,1.60754-.01172.48494.26807,1.09285.10596,1.3735-.3623l1.61646-2.69432c.28874-.48127.1104-1.10956-.37585-1.37989-.49287-.27344-.77551-.74072-.77551-1.28174,0-.54097.28259-1.00822.77538-1.28167.48682-.27013.66437-.8992.37598-1.37995l-1.61647-2.69434c-.28065-.46729-.88856-.62939-1.3735-.3623-.50477.28125-1.10475.27637-1.60754-.01172-.47899-.27588-.75369-.73877-.75369-1.27002,0-.55225-.4542-1-1.0155-1h-3.23293c-.5613,0-1.0155.44775-1.0155,1,0,.53125-.2747.99414-.75369,1.27002-.5018.28857-1.10277.29346-1.60754.01172-.48296-.26709-1.09186-.10498-1.3735.3623l-1.61646,2.69432c-.28843.48075-.10984,1.10988.37584,1.3799.49287.27344.77551.74072.77551,1.28174,0,.54097-.28258,1.00822-.77551,1.28174ZM16.59704,10c1.67994,0,3.0465,1.3457,3.0465,3s-1.36656,3-3.0465,3-3.0465-1.3457-3.0465-3,1.36656-3,3.0465-3Z"/>
        <path d="M38.93801,30h-17.20496c-1.53019-3.05908-4.6709-5-8.1825-5-3.74068,0-7.06783,2.20752-8.47604,5.62402-.12694.30811-.09024.65869.09917.93457.18842.27588.50378.44141.84195.44141h6.09894l2.031,2-2.031,2h-6.09894c-.33817,0-.65353.16553-.84195.44141-.18941.27588-.22611.62646-.09917.93457,1.40821,3.4165,4.73536,5.62402,8.47604,5.62402,3.5116,0,6.65231-1.94092,8.1825-5h17.20496c2.24025,0,4.06199-1.79443,4.06199-4s-1.82175-4-4.06199-4Z"/>
      </g>
    </g>
  </g>
</svg>