<?xml version="1.0" encoding="UTF-8"?>
<svg id="Glyph" xmlns="http://www.w3.org/2000/svg" version="1.1" viewBox="0 0 48 48">
  <path d="M42.03027,9.20215c-.313-.57859-1.12174-.69715-1.58691-.23096l-3.74219,3.74219h-1.41406v-1.41455l3.7412-3.74218c.46586-.46598.34744-1.27465-.23144-1.58643-3.08594-1.67188-6.97852-1.104-9.45996,1.37891-2.01465,2.01465-2.79199,4.98486-2.06445,7.72119l-12.20752,12.20898c-2.73682-.73145-5.70703.04883-7.72168,2.06348-3.11914,3.11914-3.11914,8.19531,0,11.31445,3.05787,3.05788,8.22175,3.09174,11.31348,0,2.01514-2.01465,2.79248-4.98535,2.06494-7.72168l12.20801-12.20801c2.73633.72998,5.70605-.04834,7.7207-2.06445,2.48338-2.48289,3.0498-6.37348,1.37988-9.46094ZM16.20703,34.20703l-3,3c-.19531.19531-.45117.29297-.70703.29297s-.51172-.09766-.70703-.29297l-2-2c-.39062-.39062-.39062-1.02344,0-1.41406s1.02344-.39062,1.41406,0l1.29297,1.29297,2.29297-2.29297c.39062-.39062,1.02344-.39062,1.41406,0s.39062,1.02344,0,1.41406Z" fill="#000" stroke-width="0"/>
</svg>