<?xml version="1.0" encoding="UTF-8" standalone="no"?><!DOCTYPE svg PUBLIC "-//W3C//DTD SVG 1.1//EN" "http://www.w3.org/Graphics/SVG/1.1/DTD/svg11.dtd"><svg width="100%" height="100%" viewBox="0 0 267 267" version="1.1" xmlns="http://www.w3.org/2000/svg" xmlns:xlink="http://www.w3.org/1999/xlink" xml:space="preserve" xmlns:serif="http://www.serif.com/" style="fill-rule:evenodd;clip-rule:evenodd;stroke-linejoin:round;stroke-miterlimit:2;"><circle cx="189.583" cy="79.167" r="64.583" style="fill:#fcc369;"/><circle cx="189.583" cy="79.167" r="52.252" style="fill:#daeeff;"/><path d="M204.657,84.895c-0.578,-0.497 -2.915,-2.489 -5.415,-4.382c-0.714,-0.541 -1.435,-1.069 -2.115,-1.556c-0.038,-0.93 -0.208,-4.26 -0.336,-5.833c-0.513,-6.313 -1.311,-13.461 -1.412,-14.357c-0.064,-3.126 -2.637,-5.657 -5.796,-5.657c-3.164,-0 -5.739,2.539 -5.797,5.689c-0.106,0.922 -0.899,8.037 -1.41,14.325c-0.143,1.753 -0.265,3.428 -0.314,4.894c-0.088,2.612 -0.028,4.525 -0.015,4.881c0.001,0.009 0.001,0.019 0.001,0.028c0.016,2.675 1.449,5.143 3.768,6.481c0.035,0.021 0.071,0.04 0.107,0.058c0,0 3.158,1.584 6.437,2.966c2.892,1.219 5.787,2.248 6.504,2.499c2.728,1.453 6.162,0.484 7.728,-2.228c1.564,-2.708 0.692,-6.159 -1.935,-7.808Z" style="fill:#545ea1;"/><path d="M187.631,131.382c0.646,0.024 1.298,0.036 1.952,0.036c0.655,0 1.307,-0.012 1.953,-0.036l-0.492,-7.949c0,-0.806 -0.654,-1.461 -1.461,-1.461c-0.806,0 -1.46,0.655 -1.46,1.461l-0.492,7.949Zm37.539,-13.97c0.918,-0.854 1.805,-1.741 2.659,-2.658l-5.912,-5.319c-0.57,-0.57 -1.496,-0.57 -2.066,-0c-0.57,0.57 -0.57,1.495 0,2.065l5.319,5.912Zm-73.832,-2.658c0.854,0.917 1.741,1.804 2.658,2.658l5.319,-5.912c0.57,-0.57 0.57,-1.495 0,-2.065c-0.57,-0.57 -1.495,-0.57 -2.065,-0l-5.912,5.319Zm90.461,-37.54l-7.95,0.492c-0.806,-0 -1.46,0.654 -1.46,1.461c-0,0.806 0.654,1.46 1.46,1.46l7.95,0.492c0.024,-0.646 0.036,-1.298 0.036,-1.952c-0,-0.655 -0.012,-1.307 -0.036,-1.953Zm-104.431,0c-0.024,0.646 -0.036,1.298 -0.036,1.953c-0,0.654 0.012,1.306 0.036,1.952l7.949,-0.492c0.806,0 1.461,-0.654 1.461,-1.46c-0,-0.807 -0.655,-1.461 -1.461,-1.461l-7.949,-0.492Zm16.628,-36.293c-0.917,0.854 -1.804,1.741 -2.658,2.659l5.912,5.319c0.57,0.57 1.495,0.57 2.065,-0c0.57,-0.57 0.57,-1.496 0,-2.066l-5.319,-5.912Zm71.174,-0l-5.319,5.912c-0.57,0.57 -0.57,1.496 0,2.066c0.57,0.57 1.496,0.57 2.066,-0l5.912,-5.319c-0.854,-0.918 -1.741,-1.805 -2.659,-2.659Zm-37.539,-13.97l0.492,7.95c-0,0.806 0.654,1.46 1.46,1.46c0.807,0 1.461,-0.654 1.461,-1.46l0.492,-7.95c-0.646,-0.024 -1.298,-0.036 -1.953,-0.036c-0.654,0 -1.306,0.012 -1.952,0.036Z" style="fill:#545ea1;"/><path d="M146.305,221.776c-0,1.151 0.933,2.084 2.083,2.084l28.224,-0c1.15,-0 2.083,-0.933 2.083,-2.084l0,-50.033c0,-8.938 -7.257,-16.195 -16.195,-16.195c-8.938,-0 -16.195,7.257 -16.195,16.195l-0,50.033Z" style="fill:#ffbd3f;"/><path d="M56.25,221.776c0,1.151 0.933,2.084 2.083,2.084l28.224,-0c1.151,-0 2.083,-0.933 2.083,-2.084l0,-50.033c0,-8.938 -7.256,-16.195 -16.195,-16.195c-8.938,-0 -16.195,7.257 -16.195,16.195l0,50.033Z" style="fill:#ed3a52;"/><path d="M101.277,221.776c0,1.151 0.933,2.084 2.084,2.084l28.223,-0c1.151,-0 2.084,-0.933 2.084,-2.084l-0,-84.463c-0,-8.938 -7.257,-16.195 -16.195,-16.195c-8.939,-0 -16.196,7.257 -16.196,16.195l0,84.463Z" style="fill:#2cd35e;"/><path d="M46.974,219.693l-0,-124.74c-0,-8.939 -7.257,-16.196 -16.195,-16.196c-8.939,0 -16.196,7.257 -16.196,16.196l0,140.935c0,8.944 7.251,16.195 16.196,16.195l149.671,0c8.938,0 16.195,-7.257 16.195,-16.195c0,-8.938 -7.257,-16.195 -16.195,-16.195l-133.476,-0Z" style="fill:#089ff5;"/></svg>