<?xml version="1.0" encoding="UTF-8" standalone="no"?><!DOCTYPE svg PUBLIC "-//W3C//DTD SVG 1.1//EN" "http://www.w3.org/Graphics/SVG/1.1/DTD/svg11.dtd"><svg width="100%" height="100%" viewBox="0 0 267 267" version="1.1" xmlns="http://www.w3.org/2000/svg" xmlns:xlink="http://www.w3.org/1999/xlink" xml:space="preserve" xmlns:serif="http://www.serif.com/" style="fill-rule:evenodd;clip-rule:evenodd;stroke-linejoin:round;stroke-miterlimit:2;"><path d="M114.437,81.782c-2.18,1.726 -4.328,3.588 -6.429,5.596c-0.832,0.794 -0.862,2.114 -0.068,2.946c0.795,0.831 2.115,0.861 2.946,0.067c2.006,-1.917 4.056,-3.694 6.138,-5.343c0.901,-0.713 1.053,-2.025 0.34,-2.926c-0.714,-0.902 -2.026,-1.054 -2.927,-0.34Zm14.264,-9.294c-2.459,1.301 -4.913,2.736 -7.344,4.318c-0.963,0.628 -1.236,1.919 -0.609,2.883c0.627,0.964 1.919,1.237 2.883,0.609c2.323,-1.512 4.668,-2.883 7.018,-4.126c1.017,-0.538 1.405,-1.799 0.868,-2.816c-0.537,-1.016 -1.799,-1.405 -2.816,-0.868Zm15.662,-6.616c-2.627,0.859 -5.291,1.844 -7.968,2.972c-1.06,0.447 -1.557,1.67 -1.111,2.729c0.447,1.06 1.67,1.557 2.729,1.111c2.569,-1.083 5.123,-2.028 7.644,-2.851c1.093,-0.357 1.69,-1.534 1.333,-2.627c-0.357,-1.093 -1.534,-1.691 -2.627,-1.334Zm16.494,-3.992c-2.675,0.437 -5.459,0.988 -8.32,1.678c-1.118,0.27 -1.806,1.396 -1.536,2.514c0.269,1.118 1.396,1.806 2.514,1.536c2.755,-0.664 5.436,-1.195 8.013,-1.616c1.135,-0.185 1.906,-1.257 1.721,-2.391c-0.185,-1.135 -1.257,-1.906 -2.392,-1.721Zm28.889,3.153c0.163,0.041 0.334,0.063 0.509,0.063c0,-0 2.977,-3.776 0.241,-4.154c-0.277,-0.038 -1.78,-0.237 -4.256,-0.395c-1.147,-0.073 -2.138,0.799 -2.212,1.946c-0.073,1.148 0.799,2.139 1.947,2.212c1.817,0.116 3.109,0.25 3.771,0.328Zm-12.004,-4.67c-2.539,0.044 -5.385,0.178 -8.47,0.455c-1.145,0.103 -1.991,1.116 -1.888,2.261c0.103,1.146 1.116,1.992 2.261,1.889c2.976,-0.267 5.721,-0.396 8.169,-0.439c1.15,-0.02 2.067,-0.969 2.047,-2.119c-0.02,-1.149 -0.969,-2.067 -2.119,-2.047Z" style="fill:#8caedb;"/><path d="M161.74,136.496c-2.586,0.009 -5.297,-0.106 -8.109,-0.383c-1.144,-0.114 -2.165,0.724 -2.278,1.868c-0.113,1.144 0.725,2.165 1.869,2.278c2.959,0.292 5.812,0.413 8.532,0.404c1.15,-0.004 2.08,-0.941 2.076,-2.091c-0.004,-1.149 -0.94,-2.08 -2.09,-2.076Zm16.14,-1.666c-2.385,0.489 -5.079,0.928 -8.029,1.233c-1.144,0.118 -1.976,1.143 -1.858,2.287c0.118,1.143 1.142,1.976 2.286,1.858c3.101,-0.321 5.932,-0.783 8.438,-1.297c1.126,-0.231 1.853,-1.333 1.622,-2.459c-0.231,-1.127 -1.333,-1.853 -2.459,-1.622Zm-32.27,0.067c-0.661,-0.136 -1.327,-0.282 -1.996,-0.438c-1.119,-0.261 -2.241,0.436 -2.502,1.556c-0.261,1.12 0.436,2.241 1.556,2.502c0.705,0.164 1.406,0.318 2.104,0.461c1.126,0.232 2.228,-0.495 2.46,-1.621c0.231,-1.126 -0.495,-2.229 -1.622,-2.46Zm44.658,0.52l-0.87,-3.977c-0,0 -1.525,0.648 -3.681,1.344c-1.094,0.353 -1.695,1.529 -1.342,2.623c0.353,1.094 1.529,1.695 2.623,1.342c2.378,-0.768 3.798,-1.373 4.058,-1.486c0.035,-0.015 0.057,-0.025 0.057,-0.025l-0.845,0.179Z" style="fill:#8caedb;"/><path d="M185.83,200.218c0.885,1.362 1.748,2.83 2.584,4.41c0.537,1.017 1.799,1.405 2.815,0.868c1.017,-0.538 1.406,-1.799 0.868,-2.816c-0.897,-1.696 -1.823,-3.27 -2.772,-4.732c-0.627,-0.964 -1.918,-1.238 -2.882,-0.612c-0.965,0.626 -1.239,1.918 -0.613,2.882Zm-10.835,-11.39c2.007,1.349 4.007,3.03 5.956,5.108c0.786,0.839 2.106,0.882 2.945,0.096c0.839,-0.787 0.881,-2.106 0.095,-2.945c-2.182,-2.328 -4.425,-4.206 -6.671,-5.716c-0.954,-0.642 -2.25,-0.388 -2.891,0.566c-0.642,0.954 -0.388,2.25 0.566,2.891Zm-14.558,-4.985c2.35,0.155 4.93,0.598 7.61,1.517c1.088,0.373 2.273,-0.207 2.646,-1.295c0.373,-1.088 -0.207,-2.273 -1.295,-2.646c-3.06,-1.049 -6.005,-1.557 -8.687,-1.733c-1.148,-0.076 -2.141,0.794 -2.216,1.942c-0.075,1.147 0.795,2.14 1.942,2.215Zm-12.182,1.574c-0,-0 0.288,0.034 0.78,-0.152c0.243,-0.091 1.564,-0.564 3.628,-0.953c1.13,-0.212 1.874,-1.302 1.662,-2.432c-0.213,-1.13 -1.303,-1.875 -2.433,-1.662c-2.463,0.463 -4.037,1.039 -4.328,1.149c-0.043,0.016 -0.071,0.027 -0.071,0.027c0,0 0.762,4.023 0.762,4.023c-1.15,-4.167 -2.083,-3.233 -2.083,-2.084c-0,1.15 0.933,2.084 2.083,2.084Z" style="fill:#8caedb;"/><path d="M108.742,97.722l-0,-45.674c-0,-1.15 -0.933,-2.083 -2.083,-2.083l-46.303,0c-1.15,0 -2.083,0.933 -2.083,2.083c-0,0 -0,31.868 -0.048,45.667c0,0.003 0,0.005 0,0.007c0,2.87 -1.665,5.48 -4.268,6.688c-0.006,0.003 -0.013,0.006 -0.019,0.009c-23.263,11.077 -39.355,34.807 -39.355,62.267c0,38.04 30.884,68.924 68.924,68.924c38.041,-0 68.925,-30.884 68.925,-68.924c-0,-27.461 -16.094,-51.193 -39.378,-62.228c-0.005,-0.002 -0.01,-0.005 -0.015,-0.007c-2.62,-1.216 -4.296,-3.841 -4.297,-6.729Z" style="fill:#dae2fd;"/><path d="M16.334,182.177c-1.145,-4.98 -1.751,-10.166 -1.751,-15.491c0,-27.46 16.092,-51.19 39.355,-62.267c0.006,-0.003 0.013,-0.006 0.019,-0.009c2.603,-1.208 4.268,-3.818 4.268,-6.688c0,-0.002 0,-0.004 0,-0.007c0.048,-13.799 0.048,-45.667 0.048,-45.667c-0,-1.15 0.933,-2.083 2.083,-2.083l46.303,0c1.15,0 2.083,0.933 2.083,2.083l-0,8.281c-12.9,-1.927 -40.165,-5.314 -42.467,0.057c-3.025,7.058 4.393,41.448 -2.533,46.982c-5.456,4.358 -38.809,40.668 -47.408,74.809Z" style="fill:#c2caf9;"/><path d="M120.461,40.703c-0,-5.324 -4.323,-9.646 -9.647,-9.646c-0,-0 -54.613,-0 -54.613,-0c-5.324,-0 -9.647,4.322 -9.647,9.646c0,0 0,3.782 0,3.782c0,5.324 4.323,9.647 9.647,9.647c-0,-0 54.613,-0 54.613,-0c5.324,-0 9.647,-4.323 9.647,-9.647l-0,-3.782Z" style="fill:#74a6e8;"/><path d="M115.629,151.459c-1.331,-0.686 -2.841,-1.074 -4.441,-1.074c-5.363,0 -9.718,4.355 -9.718,9.718c0,1.227 0.229,2.401 0.656,3.477c-5.743,3.002 -12.047,4.165 -17.658,2.788c-0.951,-0.233 -1.937,0.228 -2.367,1.108c-0.431,0.88 -0.19,1.941 0.578,2.549c12.389,9.808 19.855,7.92 26.04,6.449c2.487,-0.591 4.713,-1.21 7.058,-0.444c2.414,0.788 4.845,3.001 7.871,7.676c0.031,0.047 0.064,0.094 0.099,0.139l6.495,8.425c0.422,0.548 1.089,0.851 1.78,0.807c0.69,-0.043 1.314,-0.426 1.665,-1.023c0,0 6.048,-10.212 6.048,-25.368c0,-4.743 -0.589,-9.349 -1.849,-13.71c-0.994,-3.763 -4.388,-6.395 -8.283,-6.417c-5.298,-0.048 -10.353,1.262 -13.974,4.9Z" style="fill:#084d41;"/><circle cx="86.843" cy="142.426" r="9.718" style="fill:#084d41;"/><path d="M68.746,66.14l7.556,-0c1.15,-0 2.084,-0.934 2.084,-2.084c-0,-1.15 -0.934,-2.083 -2.084,-2.083l-7.556,-0c-1.15,-0 -2.083,0.933 -2.083,2.083c-0,1.15 0.933,2.084 2.083,2.084Z" style="fill:#74a6e8;"/><path d="M68.746,76.671l7.556,0c1.15,0 2.084,-0.933 2.084,-2.083c-0,-1.15 -0.934,-2.083 -2.084,-2.083l-7.556,-0c-1.15,-0 -2.083,0.933 -2.083,2.083c-0,1.15 0.933,2.083 2.083,2.083Z" style="fill:#74a6e8;"/><path d="M68.746,87.203l7.556,-0c1.15,-0 2.084,-0.934 2.084,-2.084c-0,-1.149 -0.934,-2.083 -2.084,-2.083l-7.556,0c-1.15,0 -2.083,0.934 -2.083,2.083c-0,1.15 0.933,2.084 2.083,2.084Z" style="fill:#74a6e8;"/><circle cx="220.128" cy="134.224" r="31.956" style="fill:#fff1d7;"/><path d="M220.549,115.154c-0.278,-0.058 -0.565,-0.058 -0.842,-0c-6.04,1.245 -11.785,4.562 -15.884,9.17c-0.189,0.212 -0.332,0.46 -0.421,0.729c-1.941,5.854 -1.941,12.488 -0,18.342c0.089,0.269 0.232,0.517 0.421,0.729c4.099,4.608 9.844,7.925 15.884,9.17c0.277,0.058 0.564,0.058 0.842,0c6.04,-1.245 11.785,-4.562 15.884,-9.17c0.188,-0.212 0.331,-0.46 0.421,-0.729c1.941,-5.854 1.941,-12.488 -0,-18.342c-0.09,-0.269 -0.233,-0.517 -0.421,-0.729c-4.099,-4.608 -9.844,-7.925 -15.884,-9.17Zm-0.415,4.173c4.877,1.1 9.5,3.769 12.892,7.443c1.492,4.785 1.492,10.123 0.007,14.897c-3.399,3.685 -8.022,6.354 -12.899,7.454c-4.89,-1.1 -9.513,-3.769 -12.904,-7.442c-1.492,-4.786 -1.492,-10.124 -0.007,-14.898c3.397,-3.684 8.021,-6.354 12.899,-7.455l0.012,0.001Z" style="fill:#74a6e8;"/><path d="M203.919,124.216l-0.091,0.102c0,-0 0.39,3.22 -0.005,2.776c4.099,4.608 9.844,7.925 15.884,9.17c0.277,0.058 0.564,0.058 0.842,0c6.04,-1.245 11.785,-4.562 15.884,-9.17c-0,-0 0.111,-0.311 0.257,-0.637c0.332,-0.746 0.198,-1.618 -0.344,-2.229l-0.01,-0.012c-4.092,-4.552 -9.795,-7.826 -15.787,-9.062c-0.278,-0.058 -0.565,-0.058 -0.842,-0c-5.993,1.236 -11.695,4.51 -15.788,9.062Zm28.064,1.494c-3.268,3.125 -7.455,5.39 -11.849,6.381c-4.405,-0.991 -8.594,-3.256 -11.861,-6.381c3.267,-3.127 7.455,-5.392 11.849,-6.384c4.405,0.992 8.594,3.257 11.861,6.384Z" style="fill:#74a6e8;"/><path d="M218.044,134.761l0,15.665c0,1.15 0.934,2.083 2.084,2.083c1.149,0 2.083,-0.933 2.083,-2.083l-0,-15.665c-0,-1.15 -0.934,-2.084 -2.083,-2.084c-1.15,0 -2.084,0.934 -2.084,2.084Z" style="fill:#74a6e8;"/><path d="M27.398,170.33c0.001,0.007 0.001,0.013 0.002,0.019c1.908,29.032 26.318,52.565 56.107,52.565c21.956,-0 40.989,-12.61 50.245,-30.978c0.39,-0.775 0.26,-1.71 -0.327,-2.348c-2.161,-2.35 -4.273,-5.048 -6.279,-8.147c-3.964,-6.122 -7.36,-8.618 -10.51,-9.504c-2.207,-0.62 -4.349,-0.472 -6.597,-0.028c-3.386,0.669 -7.061,2.129 -11.93,1.322c-4.895,-0.812 -10.926,-3.928 -19.105,-12.107c-15.356,-15.357 -33.708,-8.717 -48.119,1.815c-0.002,0.001 -0.003,0.002 -0.004,0.003c-2.336,1.715 -3.646,4.495 -3.483,7.388Z" style="fill:#017a6b;"/><circle cx="220.128" cy="63.012" r="31.956" style="fill:#fff1d7;"/><path d="M209.22,44.119c-1.392,0.804 -2.809,2.65 -3.757,5.282c-1.882,5.226 -2.152,13.716 2.007,20.92c4.159,7.203 11.646,11.214 17.114,12.197c2.753,0.495 5.06,0.191 6.452,-0.612c1.391,-0.804 2.808,-2.65 3.756,-5.282c1.883,-5.226 2.153,-13.716 -2.006,-20.92c-4.159,-7.203 -11.647,-11.214 -17.114,-12.197c-2.754,-0.495 -5.061,-0.191 -6.452,0.612Z" style="fill:#2dc743;"/><path d="M214.719,57.604c6.335,5.677 13.343,23.277 13.343,23.277c0.43,1.066 1.645,1.583 2.711,1.153c1.067,-0.43 1.583,-1.645 1.153,-2.712c0,0 -7.647,-18.746 -14.426,-24.821c-0.856,-0.767 -2.175,-0.695 -2.942,0.161c-0.767,0.857 -0.695,2.175 0.161,2.942Z" style="fill:#11897b;"/><path d="M226.631,68.226c-0.124,-0.126 -0.284,-0.244 -0.484,-0.351c-0.487,-0.262 -1.496,-0.801 -3.21,-1.074c-1.253,-0.199 -2.884,-0.332 -4.991,-0.104c-0.745,0.009 -1.343,0.62 -1.334,1.365c0.008,0.745 0.62,1.343 1.365,1.334c1.405,0.119 2.523,0.377 3.433,0.651c1.34,0.404 2.076,0.939 2.422,1.213c0.795,0.628 1.417,0.586 1.417,0.586c-0.531,0.236 0.787,0.162 1.553,-0.695c0.766,-0.857 0.693,-2.175 -0.165,-2.942l-0.006,0.017Z" style="fill:#11897b;"/><path d="M219.951,62.67l-0,0l0.001,0.001l-0.001,-0.001l0.001,0l-0,0.001l0.003,-0.001c1.138,-0.001 2.067,-0.919 2.08,-2.06l-0.025,0.025c0.002,-0.065 0.002,-0.131 -0.002,-0.2c-0.019,-0.412 -0.071,-1.262 0.12,-2.334c0.141,-0.784 0.334,-1.67 0.744,-2.58c0.385,-0.638 0.18,-1.468 -0.457,-1.853c-0.638,-0.385 -1.468,-0.18 -1.853,0.458c-0.785,1.005 -1.304,2.04 -1.716,2.971c-0.598,1.352 -0.812,2.487 -0.92,3.035c-0.035,0.18 -0.043,0.304 -0.052,0.365c-0.004,0.026 -0.005,0.053 -0.005,0.053l2.082,2.12Z" style="fill:#11897b;"/><circle cx="220.128" cy="203.654" r="31.956" style="fill:#fff1d7;"/><path d="M220.93,184.931c-1.693,2.932 -1.566,6.502 -0.644,9.184c0.699,2.033 1.89,3.534 2.954,4.148c1.064,0.615 2.959,0.896 5.07,0.485c2.783,-0.543 5.938,-2.218 7.631,-5.151c0.575,-0.995 0.233,-2.271 -0.762,-2.846c-0.996,-0.574 -2.271,-0.233 -2.846,0.763c-1.059,1.833 -3.081,2.805 -4.82,3.144c-0.907,0.177 -1.732,0.261 -2.19,-0.003c-0.457,-0.264 -0.796,-1.021 -1.097,-1.895c-0.576,-1.676 -0.745,-3.913 0.313,-5.746c0.575,-0.996 0.233,-2.271 -0.763,-2.846c-0.995,-0.575 -2.271,-0.233 -2.846,0.763Z" style="fill:#1687c9;"/><path d="M219.325,222.377c1.693,-2.932 1.566,-6.502 0.645,-9.183c-0.699,-2.034 -1.891,-3.535 -2.955,-4.149c-1.064,-0.614 -2.959,-0.896 -5.07,-0.484c-2.783,0.542 -5.938,2.218 -7.631,5.15c-0.575,0.996 -0.233,2.271 0.763,2.846c0.996,0.575 2.271,0.233 2.846,-0.763c1.058,-1.833 3.08,-2.804 4.819,-3.144c0.908,-0.176 1.732,-0.261 2.19,0.003c0.457,0.265 0.797,1.021 1.097,1.895c0.576,1.676 0.746,3.913 -0.313,5.746c-0.574,0.996 -0.233,2.271 0.763,2.846c0.996,0.575 2.271,0.233 2.846,-0.763Z" style="fill:#1687c9;"/><path d="M225.323,194.655c-1.064,-0.615 -2.959,-0.896 -5.07,-0.484c-2.783,0.542 -5.938,2.218 -7.631,5.15c-1.693,2.932 -1.566,6.502 -0.644,9.184c0.699,2.033 1.89,3.534 2.954,4.148c1.064,0.615 2.959,0.896 5.07,0.485c2.783,-0.543 5.938,-2.218 7.631,-5.151c1.693,-2.932 1.566,-6.502 0.645,-9.183c-0.699,-2.034 -1.89,-3.535 -2.954,-4.149l-0.001,-0Zm-2.083,3.608c0.458,0.265 0.797,1.021 1.097,1.895c0.577,1.676 0.746,3.913 -0.312,5.746c-1.059,1.833 -3.081,2.805 -4.82,3.144c-0.908,0.177 -1.732,0.261 -2.19,-0.003c-0.457,-0.264 -0.797,-1.02 -1.097,-1.895c-0.576,-1.676 -0.746,-3.913 0.313,-5.746c1.058,-1.833 3.08,-2.805 4.82,-3.144c0.907,-0.176 1.731,-0.261 2.189,0.003l0,0Z" style="fill:#c31e5d;"/></svg>